<?xml version="1.0" standalone="no"?><!DOCTYPE svg PUBLIC "-//W3C//DTD SVG 1.1//EN" "http://www.w3.org/Graphics/SVG/1.1/DTD/svg11.dtd"><svg t="1612096863709" class="icon" viewBox="0 0 1024 1024" version="1.1" xmlns="http://www.w3.org/2000/svg" p-id="3934" xmlns:xlink="http://www.w3.org/1999/xlink" width="200" height="200"><defs><style type="text/css"></style></defs><path d="M511.963 0l-397.57 126.309a35.842 35.842 0 0 0-24.987 34.31l2.035 496.503 0.465 5.666c0.766 3.442 17.035 86.51 98.356 166.536 62.526 61.659 215.895 142.238 281.324 176.623 10.289 5.428 17.965 9.41 22.35 11.872l7.474 4.046a17.513 17.513 0 0 0 16.332 0.226l10.892-5.528c38.242-18.77 232.793-115.944 305.081-187.19 81.421-80.088 97.69-163.13 98.381-166.585l2.513-502.144a35.842 35.842 0 0 0-24.988-34.348L511.963 0z m355.534 653.516c-3.065 12.2-20.578 72.376-79.888 130.782-57.288 56.533-212.592 137.276-269.05 165.706a17.412 17.412 0 0 1-16.093-0.188h-0.088c-57.539-30.227-210.293-110.455-266.035-165.468-59.474-58.481-76.86-118.57-79.926-130.781l-1.822-461.24a15.905 15.905 0 0 1 11.043-15.188L501.222 70.504a35.478 35.478 0 0 1 21.483 0l335.583 106.635a15.905 15.905 0 0 1 11.144 15.188l-1.91 461.202z m-349.503-414.04a146.585 146.585 0 0 1 103.695 42.539 143.13 143.13 0 0 1-0.616 204.514 146.158 146.158 0 0 1-67.287 37.149l-0.34 60.817 60.667 0.138a36.307 36.307 0 0 1 36.609 36.194 35.905 35.905 0 0 1-10.842 25.566 36.797 36.797 0 0 1-25.968 10.566l-60.667-0.138-0.276 101.019a35.905 35.905 0 0 1-10.842 25.566 36.797 36.797 0 0 1-25.968 10.578 36.307 36.307 0 0 1-36.608-36.194l0.892-234.175a145.932 145.932 0 0 1-67.05-37.363 143.219 143.219 0 0 1 0.541-204.652 146.988 146.988 0 0 1 104.034-42.136z m88.242 143.32a83.506 83.506 0 0 0-25.126-60.202 87.388 87.388 0 0 0-122.163-0.24 83.255 83.255 0 0 0-25.452 59.964 84.26 84.26 0 0 0 25.126 60.303 85.981 85.981 0 0 0 60.918 24.925c46.408 0.163 86.572-39.36 86.685-84.813z" p-id="3935"></path></svg>