<?xml version="1.0" standalone="no"?><!DOCTYPE svg PUBLIC "-//W3C//DTD SVG 1.1//EN" "http://www.w3.org/Graphics/SVG/1.1/DTD/svg11.dtd"><svg t="1608992894612" class="icon" viewBox="0 0 1024 1024" version="1.1" xmlns="http://www.w3.org/2000/svg" p-id="3774" xmlns:xlink="http://www.w3.org/1999/xlink" width="200" height="200"><defs><style type="text/css"></style></defs><path d="M883.2 352H768V256c0-140.8-115.2-256-256-256S256 115.2 256 256v96H140.8c-12.8 0-32 12.8-32 32v371.2C108.8 902.4 230.4 1024 384 1024h256c147.2 0 268.8-121.6 268.8-268.8V384c6.4-19.2-12.8-32-25.6-32zM320 256c0-102.4 83.2-192 192-192s192 83.2 192 192v96H320V256z m531.2 499.2c0 115.2-89.6 204.8-204.8 204.8H384c-115.2 0-204.8-89.6-204.8-204.8V416H851.2v339.2z" fill="" p-id="3775"></path><path d="M512 499.2c-76.8 0-140.8 64-140.8 134.4 0 38.4 12.8 70.4 38.4 96-6.4 12.8-6.4 25.6-6.4 38.4 0 57.6 44.8 108.8 108.8 108.8 57.6 0 108.8-44.8 108.8-108.8 0-12.8 0-25.6-6.4-38.4 25.6-25.6 38.4-57.6 38.4-96 0-76.8-64-134.4-140.8-134.4z m38.4 198.4c-6.4 6.4-12.8 12.8-12.8 19.2s0 19.2 6.4 25.6c6.4 6.4 12.8 19.2 12.8 25.6 0 25.6-19.2 44.8-44.8 44.8s-44.8-19.2-44.8-44.8c0-6.4 6.4-19.2 12.8-25.6 6.4-6.4 6.4-19.2 6.4-25.6 0-6.4-6.4-19.2-12.8-19.2-19.2-12.8-32-38.4-32-64 0-38.4 32-70.4 76.8-70.4s76.8 32 76.8 70.4c-6.4 25.6-19.2 51.2-44.8 64z" fill="" p-id="3776"></path></svg>