<?xml version="1.0" standalone="no"?><!DOCTYPE svg PUBLIC "-//W3C//DTD SVG 1.1//EN" "http://www.w3.org/Graphics/SVG/1.1/DTD/svg11.dtd"><svg t="1664875912616" class="icon" viewBox="0 0 1024 1024" version="1.1" xmlns="http://www.w3.org/2000/svg" p-id="7875" width="200" height="200" xmlns:xlink="http://www.w3.org/1999/xlink"><path d="M845.732 976.357h-662.234c-20.897 0-37.839-16.942-37.839-37.839v-382.025c0-20.897 16.942-37.839 37.839-37.839s37.839 16.942 37.839 37.839v344.185h586.554v-351.71c0-20.897 16.942-37.839 37.839-37.839s37.839 16.942 37.839 37.839v389.55c0 20.899-16.942 37.84-37.839 37.84zM982.167 542.191c-9.684 0-19.37-3.414-26.758-10.247l-447.379-413.662-442.678 409.312c-14.777 13.663-38.736 13.665-53.514 0.003-14.779-13.66-14.78-35.812-0.003-49.474l469.437-434.055c7.097-6.56 16.722-10.247 26.758-10.247s19.663 3.687 26.758 10.247l474.14 438.405c14.777 13.663 14.774 35.812-0.003 49.473-7.389 6.832-17.072 10.245-26.756 10.245z" p-id="7876"></path></svg>