<?xml version="1.0" standalone="no"?><!DOCTYPE svg PUBLIC "-//W3C//DTD SVG 1.1//EN" "http://www.w3.org/Graphics/SVG/1.1/DTD/svg11.dtd"><svg t="1649148368550" class="icon" viewBox="0 0 1066 1024" version="1.1" xmlns="http://www.w3.org/2000/svg" p-id="5393" width="208.203125" height="200" xmlns:xlink="http://www.w3.org/1999/xlink"><defs><style type="text/css">@font-face { font-family: "feedback-iconfont"; src: url("//at.alicdn.com/t/font_1031158_u69w8yhxdu.woff2?t=1630033759944") format("woff2"), url("//at.alicdn.com/t/font_1031158_u69w8yhxdu.woff?t=1630033759944") format("woff"), url("//at.alicdn.com/t/font_1031158_u69w8yhxdu.ttf?t=1630033759944") format("truetype"); }
</style></defs><path d="M527.658134 359.322715a146.238898 146.238898 0 1 1-146.238898 146.238897 146.379851 146.379851 0 0 1 146.238898-146.238897m0-64.979405a211.429732 211.429732 0 1 0 211.429731 211.429732 211.429732 211.429732 0 0 0-211.429731-211.429732m522.16096 340.119962a535.621987 535.621987 0 0 0 0-243.496574 32.560179 32.560179 0 0 0-63.428919 14.870558 470.783536 470.783536 0 0 1 0 213.825935 32.560179 32.560179 0 0 0 63.428919 14.870558z m-38.409735 24.948708h5.35622a32.489702 32.489702 0 1 0 2.819063-64.979404h-8.175283a32.560179 32.560179 0 1 0 0 65.049881z m-106.137725 195.572502a126.857839 126.857839 0 0 1 106.137725-195.572502 32.560179 32.560179 0 1 0 0-65.04988 191.625813 191.625813 0 0 0-160.616119 296.001624 32.489702 32.489702 0 0 0 54.478394-35.238289z m-220.027874 167.170441a530.970533 530.970533 0 0 0 215.305944-126.01212 32.489702 32.489702 0 0 0-45.10501-46.866924 465.920652 465.920652 0 0 1-188.947703 110.57775 32.489702 32.489702 0 0 0 18.676293 62.301294z m-267.810993-17.266761a126.857839 126.857839 0 0 1 229.119352 0 32.489702 32.489702 0 1 0 58.847942-27.697295 191.625813 191.625813 0 0 0-346.815236 0 32.489702 32.489702 0 1 0 58.847942 27.697295z m-252.658529-107.335827a531.463869 531.463869 0 0 0 213.825935 124.602588 32.489702 32.489702 0 0 0 18.746769-62.230817 466.484465 466.484465 0 0 1-187.679125-109.379648 32.489702 32.489702 0 1 0-44.893579 47.007877zM54.689824 659.41198a126.857839 126.857839 0 0 1 105.714866 196.629651 32.489702 32.489702 0 1 0 54.126011 36.013531A191.625813 191.625813 0 0 0 54.901254 594.432576a32.560179 32.560179 0 0 0 0 65.049881z m-7.047658 0h7.047658a32.560179 32.560179 0 1 0 0-65.04988H43.977384a32.489702 32.489702 0 0 0 3.594306 64.908927zM14.236269 390.684791a535.621987 535.621987 0 0 0 0 243.708004 32.560179 32.560179 0 1 0 63.428919-14.800081 470.431153 470.431153 0 0 1 0-214.037365 32.560179 32.560179 0 1 0-63.428919-14.800081z m40.594508-24.878231h-7.047658a32.489702 32.489702 0 1 0-3.594305 64.908927h10.71244a32.560179 32.560179 0 0 0 0-65.04988z m105.714866-196.629651a126.857839 126.857839 0 0 1-105.714866 196.629651 32.560179 32.560179 0 1 0 0 65.04988 191.625813 191.625813 0 0 0 159.629447-297.622585 32.489702 32.489702 0 1 0-54.126011 36.013531z m218.477389-166.113292a531.463869 531.463869 0 0 0-213.825935 124.602588 32.489702 32.489702 0 1 0 44.89358 47.007877A466.484465 466.484465 0 0 1 397.769802 65.294434a32.489702 32.489702 0 0 0-18.74677-62.230817z m267.810994 17.266761a126.857839 126.857839 0 0 1-229.119353 0 32.489702 32.489702 0 1 0-58.847942 27.697295 191.625813 191.625813 0 0 0 346.815237 0 32.489702 32.489702 0 1 0-58.847942-27.697295z m253.715678 108.745359A531.675298 531.675298 0 0 0 685.314237 3.063617 32.489702 32.489702 0 1 0 666.567467 65.294434a466.625418 466.625418 0 0 1 188.947704 110.57775 32.489702 32.489702 0 0 0 45.034533-46.866924z m110.859655 236.730823a126.857839 126.857839 0 0 1-106.137725-195.572502 32.489702 32.489702 0 1 0-54.478394-35.238289 191.625813 191.625813 0 0 0 160.616119 296.001625 32.560179 32.560179 0 0 0 0-65.049881z m5.35622 0h-5.35622a32.560179 32.560179 0 0 0 0 65.04988h8.175283a32.489702 32.489702 0 0 0-2.819063-64.979404z" p-id="5394"></path></svg>