<?xml version="1.0" standalone="no"?><!DOCTYPE svg PUBLIC "-//W3C//DTD SVG 1.1//EN" "http://www.w3.org/Graphics/SVG/1.1/DTD/svg11.dtd"><svg t="1684141258475" class="icon" viewBox="0 0 1024 1024" version="1.1" xmlns="http://www.w3.org/2000/svg" p-id="5501" xmlns:xlink="http://www.w3.org/1999/xlink" width="200" height="200"><path d="M931.9 243.8L780.2 92.1C762.1 74 738.1 64 712.5 64H161c-53.5 0-97 43.5-97 97v702c0 53.5 43.5 97 97 97h351c17.7 0 32-14.3 32-32s-14.3-32-32-32H161c-18.2 0-33-14.8-33-33V161c0-18.2 14.8-33 33-33h551.5c8.5 0 16.5 3.3 22.5 9.3L886.7 289c6 6 9.3 14 9.3 22.5V512c0 17.7 14.3 32 32 32s32-14.3 32-32V311.5c0-25.6-10-49.6-28.1-67.7z" p-id="5502"></path><path d="M951.9 797.7c0-0.3 0-0.5-0.1-0.8 0-0.3-0.1-0.6-0.1-0.9 0-0.2 0-0.4-0.1-0.6 0-0.3-0.1-0.7-0.2-1 0-0.2-0.1-0.4-0.1-0.5-0.1-0.3-0.1-0.7-0.2-1 0-0.2-0.1-0.3-0.1-0.5-0.1-0.3-0.2-0.6-0.3-1-0.1-0.2-0.1-0.4-0.2-0.6l-0.3-0.9c-0.1-0.2-0.1-0.4-0.2-0.6-0.1-0.3-0.2-0.5-0.3-0.8-0.1-0.2-0.2-0.5-0.3-0.7-0.1-0.2-0.2-0.4-0.3-0.7-0.1-0.3-0.2-0.5-0.4-0.8-0.1-0.2-0.2-0.4-0.3-0.5-0.1-0.3-0.3-0.6-0.4-0.9-0.1-0.2-0.2-0.3-0.3-0.4-0.2-0.3-0.3-0.6-0.5-0.9-0.1-0.1-0.2-0.3-0.2-0.4l-0.6-0.9c-0.1-0.1-0.2-0.2-0.3-0.4l-0.6-0.9c-0.1-0.1-0.2-0.3-0.3-0.4-0.2-0.3-0.4-0.6-0.7-0.8-0.1-0.2-0.3-0.3-0.4-0.5-0.2-0.2-0.4-0.5-0.6-0.7-0.2-0.2-0.4-0.5-0.7-0.7l-0.4-0.4-94.4-94.8c-12.5-12.5-32.8-12.5-45.3 0s-12.5 32.8 0 45.3l40 40H584c-17.7 0-32 14.3-32 32s14.3 32 32 32h258.7l-73.4 73.4c-12.5 12.5-12.5 32.8 0 45.3 6.2 6.2 14.4 9.4 22.6 9.4s16.4-3.1 22.6-9.4l128-128 0.4-0.4 0.7-0.7c0.2-0.2 0.4-0.5 0.6-0.7 0.1-0.2 0.3-0.3 0.4-0.5 0.2-0.3 0.4-0.6 0.7-0.8 0.1-0.1 0.2-0.3 0.3-0.4l0.6-0.9c0.1-0.1 0.2-0.2 0.3-0.4l0.6-0.9c0.1-0.1 0.2-0.3 0.2-0.4 0.2-0.3 0.4-0.6 0.5-0.9 0.1-0.1 0.2-0.3 0.3-0.4 0.2-0.3 0.3-0.6 0.4-0.9 0.1-0.2 0.2-0.4 0.3-0.5 0.1-0.3 0.2-0.5 0.4-0.8 0.1-0.2 0.2-0.4 0.3-0.7 0.1-0.2 0.2-0.5 0.3-0.7 0.1-0.3 0.2-0.5 0.3-0.8 0.1-0.2 0.1-0.4 0.2-0.6l0.3-0.9c0.1-0.2 0.1-0.4 0.2-0.6 0.1-0.3 0.2-0.6 0.3-1 0-0.2 0.1-0.3 0.1-0.5 0.1-0.3 0.2-0.7 0.2-1 0-0.2 0.1-0.4 0.1-0.5 0.1-0.3 0.1-0.7 0.2-1 0-0.2 0.1-0.4 0.1-0.6 0-0.3 0.1-0.6 0.1-0.9 0-0.3 0-0.5 0.1-0.8 0-0.2 0-0.5 0.1-0.7 0.1-1.1 0.1-2.1 0-3.2-0.2-0.4-0.2-0.7-0.2-0.9zM362.1 257.6c-16.8-5.6-34.9 3.5-40.5 20.2l-33.6 101-33.6-100.9c-5.6-16.8-23.7-25.8-40.5-20.2-16.8 5.6-25.8 23.7-20.2 40.5L254.3 480l-60.6 181.9c-5.6 16.8 3.5 34.9 20.2 40.5 3.4 1.1 6.8 1.7 10.1 1.7 13.4 0 25.9-8.5 30.4-21.9l33.6-101 33.6 100.9c4.5 13.4 17 21.9 30.4 21.9 3.4 0 6.8-0.5 10.1-1.7 16.8-5.6 25.8-23.7 20.2-40.5L321.7 480l60.6-181.9c5.6-16.7-3.4-34.9-20.2-40.5zM480 256c-17.7 0-32 14.3-32 32v384c0 17.7 14.3 32 32 32h128c17.7 0 32-14.3 32-32s-14.3-32-32-32h-96V288c0-17.7-14.3-32-32-32z" p-id="5503"></path><path d="M736 320c17.6 0 32 14.4 32 32 0 17.7 14.3 32 32 32s32-14.3 32-32c0-52.9-43.1-96-96-96-52 0-94.5 41.6-96 93.3-2.4 20.2 5.8 63.8 70.4 149.9 0.3 0.4 0.5 0.7 0.8 1.1 55 67.2 57 100.4 57 103.6-0.2 1.4-0.3 2.7-0.3 4.1 0 17.6-14.4 32-32 32s-32-14.4-32-32c0-17.7-14.3-32-32-32s-32 14.3-32 32c0 52.9 43.1 96 96 96 52.2 0 94.7-41.8 96-93.7 1.9-17.3-1.8-65.5-70.8-150.1-52.6-70.2-57.1-100.3-57.4-104.4 0.2-1.3 0.2-2.6 0.2-3.8 0.1-17.6 14.5-32 32.1-32z" p-id="5504"></path></svg>