<svg xmlns="http://www.w3.org/2000/svg" viewBox="0 0 500 500"><g id="freepik--background-complete--inject-1381"><path d="M372.49,278.4a3.78,3.78,0,0,1-7-.56c-.46-1.58-1.48-4-3.58-5-3.24-1.6-6.79-.12-8.61,3.55s-.82,7.4,2.42,9c2.09,1,4.63.38,6.16-.22a3.77,3.77,0,0,1,4.7,5.2l-11.34,22.94,51.49,24.16,11.49-24.29a3.78,3.78,0,0,1,7,.56c.46,1.58,1.48,4,3.58,5,3.24,1.6,6.79.12,8.61-3.56s.82-7.39-2.42-9c-2.09-1-4.63-.38-6.16.21a3.71,3.71,0,0,1-3-.15c-1.86-.92-3-3.12-2.12-5l9.69-20.65-51-23.93Z" style="fill:#ebebeb"></path><path d="M297.45,38.35,275,44.89l5.75,20c.49,1.83,2.62,2.63,4.45,2.14a3.36,3.36,0,0,0,2.13-1.68c.7-1.33,2-3.29,4.1-3.84,3.18-.85,6.09,1.1,7.05,4.71s-.58,6.75-3.77,7.6c-2.05.54-4.2-.49-5.46-1.3a3.39,3.39,0,0,0-2.69-.39,3.43,3.43,0,0,0-2.43,4.2l6.69,23.53,33.12-9.53,19.44-5.6,2.39-.69-6-22.51a3.43,3.43,0,0,0-4.2-2.43,3.39,3.39,0,0,0-2.13,1.68c-.7,1.33-2,3.3-4.1,3.85-3.18.85-6.09-1.11-7.05-4.71s.58-6.75,3.77-7.6c2.05-.55,4.2.49,5.46,1.29a3.39,3.39,0,0,0,2.69.4,3.43,3.43,0,0,0,2.43-4.2l-6.24-21-32.92,9.53" style="fill:#f5f5f5"></path><path d="M245,295.73l-19.88,1.44,1.23,17.63a3,3,0,0,0,3.32,2.58,2.87,2.87,0,0,0,2.08-1,6.23,6.23,0,0,1,4.09-2.47c2.8-.14,4.87,2,5,5.18s-1.68,5.51-4.48,5.65a6.21,6.21,0,0,1-4.32-2,2.88,2.88,0,0,0-2.17-.81,2.92,2.92,0,0,0-2.77,3.06l1.38,20.78,29.27-2.05,17.16-1.2,2.12-.15-1-19.79a2.93,2.93,0,0,0-3.07-2.78,2.87,2.87,0,0,0-2.07,1,6.22,6.22,0,0,1-4.09,2.47c-2.8.14-4.87-2-5-5.18s1.68-5.51,4.48-5.65a6.17,6.17,0,0,1,4.32,2.05,2.84,2.84,0,0,0,2.17.8,2.92,2.92,0,0,0,2.77-3.06L274,293.65,245,295.73" style="fill:#ebebeb"></path><path d="M109,284.37c-9.58,5-16.94,13.52-22.22,22.93s-8.69,19.75-12.07,30l-3,52.89c11.15-19,20.11-41.28,22.53-63.16l-7.43-.66c5-.76,9.16-4.37,11.82-8.64s4-9.21,5.36-14.06L94.94,305A33.56,33.56,0,0,0,109,284.37Z" style="fill:#e0e0e0"></path><path d="M70.07,402.58s-24.21-29-23.93-56.64h9.78s-10.63-7-9.79-10.9,1.12-18.72,1.12-18.72l9,2.24s-6.71-3.36-7.55-8.66,2-29.9,2-29.9,10.9,11.45,14.25,23.19S77,328.62,74.43,364.38,70.07,402.58,70.07,402.58Z" style="fill:#ebebeb"></path><path d="M82.34,405.32s26.23-17.47,32.06-39.78l-7.86-2.14s10.07-3.29,10.25-6.62S120,341.49,120,341.49l-7.68-.16s6.13-1.23,8-5.32,5-24.46,5-24.46S114,318.37,108.7,327.08s-15.33,17.78-21.08,47.1S82.34,405.32,82.34,405.32Z" style="fill:#ebebeb"></path><path d="M57.22,305.26a1.31,1.31,0,0,1,.09.3c.06.23.13.52.22.89.18.82.44,2,.77,3.44s.73,3.32,1.16,5.46.93,4.55,1.42,7.24c1,5.37,2.14,11.8,3.27,18.94s2.18,15,3.15,23.33,1.69,16.22,2.25,23.43.93,13.73,1.15,19.19c.13,2.74.19,5.21.26,7.38s.11,4.05.12,5.58,0,2.68,0,3.52c0,.38,0,.68,0,.92s0,.31,0,.31a1.61,1.61,0,0,1,0-.31l0-.92c0-.84-.08-2-.13-3.52s-.11-3.4-.21-5.57-.18-4.64-.34-7.37c-.26-5.46-.7-12-1.25-19.17s-1.35-15.12-2.3-23.41-2-16.16-3.11-23.31S61.52,328,60.52,322.66c-.47-2.7-1-5.12-1.35-7.26s-.76-4-1.07-5.47-.51-2.63-.68-3.45c-.06-.38-.12-.68-.16-.91A1.77,1.77,0,0,1,57.22,305.26Z" style="fill:#e0e0e0"></path><path d="M66.71,420.33s-22.16-25.14-29-40.34l5.2-2.21c-3.77.62-7.62-1-10.54-3.46s-5.06-5.69-7.17-8.87L32,364.29a25.37,25.37,0,0,1-14.95-11.58C25.13,354,32.43,358.48,38.45,364a106.85,106.85,0,0,1,13,15,51.36,51.36,0,0,1,5,8.28C60.18,395,66.72,411.1,66.71,420.33Z" style="fill:#e0e0e0"></path><path d="M114.75,326.18a1.42,1.42,0,0,1-.1.26l-.34.73L113,330c-1.19,2.42-2.86,5.93-4.9,10.29C104,349,98.64,361.12,93.34,374.8S83.84,401.11,81,410.29c-1.43,4.59-2.55,8.32-3.3,10.9-.37,1.26-.67,2.26-.88,3l-.24.77c-.06.17-.1.26-.1.26a.78.78,0,0,1,0-.27c.06-.21.12-.47.2-.78.19-.73.45-1.73.79-3,.69-2.6,1.75-6.35,3.14-11,2.76-9.22,6.92-21.86,12.21-35.56s10.73-25.85,14.89-34.53c2.08-4.34,3.81-7.83,5.05-10.22.6-1.17,1.08-2.09,1.43-2.75l.38-.71A1,1,0,0,1,114.75,326.18Z" style="fill:#e0e0e0"></path><path d="M68.59,431.1a1.33,1.33,0,0,1-.11-.46c-.06-.36-.14-.8-.23-1.33-.17-1.16-.46-2.83-.87-4.89s-1-4.48-1.7-7.16-1.67-5.56-2.79-8.55-2.36-5.78-3.56-8.27-2.4-4.69-3.46-6.5-1.93-3.26-2.57-4.24c-.28-.46-.52-.84-.72-1.15a2.73,2.73,0,0,1-.22-.42s.12.11.31.36l.8,1.09c.69,1,1.62,2.38,2.72,4.17s2.32,4,3.57,6.47,2.48,5.3,3.62,8.3,2,5.93,2.76,8.62,1.25,5.14,1.6,7.21.6,3.76.71,4.93l.13,1.35A1.67,1.67,0,0,1,68.59,431.1Z" style="fill:#e0e0e0"></path><rect x="49.33" y="425.19" width="48.49" height="9.89" style="fill:#e0e0e0"></rect><polygon points="53.95 435.08 59.2 465.85 88.5 465.85 93.39 435.08 53.95 435.08" style="fill:#e0e0e0"></polygon><path d="M94.85,435.08c0,.14-9.17.26-20.49.26s-20.48-.12-20.48-.26,9.17-.26,20.48-.26S94.85,434.94,94.85,435.08Z" style="fill:#ebebeb"></path><path d="M269,186.54a31.63,31.63,0,0,1,7.77-3.38l1.6-7.7,13-.22,1.88,7.63a32.21,32.21,0,0,1,7.89,3.1l6.57-4.3,9.35,9-4.07,6.72a32,32,0,0,1,3.38,7.77L324,206.8l.23,13-7.63,1.87a31.85,31.85,0,0,1-3.11,7.89l4.31,6.57-9,9.36-6.72-4.08a31.87,31.87,0,0,1-7.78,3.38l-1.6,7.7-13,.23-1.87-7.64a31.66,31.66,0,0,1-7.89-3.1l-6.57,4.3-9.36-9,4.08-6.72a31.42,31.42,0,0,1-3.38-7.77l-7.7-1.6-.23-13,7.64-1.87a31.82,31.82,0,0,1,3.1-7.89l-4.31-6.57,9-9.35,6.72,4.07Zm6.93,17.32a13.95,13.95,0,1,0,19.72-.35A14,14,0,0,0,275.88,203.86Z" style="fill:#ebebeb"></path><path d="M416,94.16A29.56,29.56,0,0,1,423.24,91l1.49-7.16,12.1-.21,1.74,7.1a30.06,30.06,0,0,1,7.34,2.89l6.11-4L460.73,98l-3.79,6.25a29.63,29.63,0,0,1,3.14,7.23l7.16,1.5.22,12.09-7.11,1.75a29.66,29.66,0,0,1-2.89,7.34l4,6.11-8.4,8.71-6.25-3.79a29.69,29.69,0,0,1-7.24,3.14l-1.49,7.16-12.1.21-1.74-7.1a29.75,29.75,0,0,1-7.34-2.89l-6.12,4-8.7-8.41,3.79-6.25a29.49,29.49,0,0,1-3.15-7.23l-7.16-1.49-.21-12.1,7.1-1.74a29.75,29.75,0,0,1,2.89-7.34l-4-6.12,8.41-8.7L416,94.16Zm6.45,16.11a13,13,0,1,0,18.36-.32A13,13,0,0,0,422.45,110.27Z" style="fill:#ebebeb"></path><path d="M39.93,207.28a29.46,29.46,0,0,1,7.23-3.14L48.65,197l12.1-.22,1.74,7.11a29,29,0,0,1,7.34,2.89l6.12-4,8.7,8.4-3.79,6.25A29.73,29.73,0,0,1,84,224.64l7.16,1.49.21,12.1L84.28,240a29.75,29.75,0,0,1-2.89,7.34l4,6.12L77,262.13l-6.25-3.79a30,30,0,0,1-7.24,3.15L62,268.65l-12.09.21-1.75-7.11a29.63,29.63,0,0,1-7.34-2.88l-6.11,4L26,254.47l3.79-6.25A29.53,29.53,0,0,1,26.66,241l-7.16-1.49-.21-12.1,7.1-1.74a29.66,29.66,0,0,1,2.89-7.34l-4-6.11,8.4-8.71,6.26,3.79Zm6.45,16.12a13,13,0,1,0,18.35-.32A13,13,0,0,0,46.38,223.4Z" style="fill:#ebebeb"></path><path d="M82.21,108a20,20,0,0,1,4.89-2.13l1-4.84,8.18-.14,1.18,4.8a19.91,19.91,0,0,1,5,2l4.13-2.71,5.89,5.69-2.57,4.22a19.85,19.85,0,0,1,2.13,4.9l4.84,1,.14,8.18-4.8,1.18a20,20,0,0,1-2,5l2.71,4.14-5.68,5.88L103,142.5a20.16,20.16,0,0,1-4.89,2.13l-1,4.84-8.18.14-1.18-4.8a20,20,0,0,1-5-1.95l-4.14,2.71-5.88-5.69,2.56-4.22a20.73,20.73,0,0,1-2.13-4.89l-4.84-1-.14-8.18,4.8-1.18a20.42,20.42,0,0,1,2-5L72.3,111.3,78,105.42,82.21,108Zm4.36,10.9A8.77,8.77,0,1,0,99,118.66,8.78,8.78,0,0,0,86.57,118.88Z" style="fill:#ebebeb"></path><path d="M52.49,55.36a18.43,18.43,0,0,1,4.5-2L57.92,49l7.53-.13,1.08,4.42A18.42,18.42,0,0,1,71.1,55l3.8-2.5,5.42,5.23L78,61.66a18.68,18.68,0,0,1,2,4.5l4.45.93.13,7.53L80.08,75.7a18.55,18.55,0,0,1-1.79,4.57l2.49,3.8-5.23,5.42-3.89-2.36a18.26,18.26,0,0,1-4.5,2l-.93,4.46-7.52.13-1.09-4.42a18.51,18.51,0,0,1-4.56-1.8L49.25,90l-5.41-5.23,2.36-3.89a18.29,18.29,0,0,1-2-4.5l-4.46-.93-.13-7.52,4.42-1.09a18.36,18.36,0,0,1,1.8-4.56l-2.49-3.81L48.6,53l3.89,2.35Zm4,10a8.07,8.07,0,1,0,11.41-.2A8.07,8.07,0,0,0,56.51,65.39Z" style="fill:#f5f5f5"></path><path d="M416.59,209.81a18.1,18.1,0,0,1,4.5-1.95l.92-4.46,7.53-.13,1.08,4.42a18.42,18.42,0,0,1,4.57,1.8L439,207l5.42,5.23-2.36,3.89a18.68,18.68,0,0,1,2,4.5l4.45.93.13,7.52-4.42,1.09a18,18,0,0,1-1.79,4.56l2.49,3.81-5.23,5.41-3.89-2.35a18.1,18.1,0,0,1-4.5,1.95l-.92,4.46-7.53.13-1.08-4.42a18.42,18.42,0,0,1-4.57-1.8l-3.81,2.5-5.41-5.23,2.36-3.89a18.29,18.29,0,0,1-2-4.5l-4.45-.93-.14-7.53,4.42-1.08a18.58,18.58,0,0,1,1.8-4.57l-2.49-3.8,5.23-5.42,3.89,2.36Zm4,10a8.08,8.08,0,1,0,11.42-.2A8.07,8.07,0,0,0,420.6,219.84Z" style="fill:#f5f5f5"></path><path d="M322.89,136.77a22.76,22.76,0,0,1,5.77-1.82l1.7-5.35,9.25.8.76,5.55a22.5,22.5,0,0,1,5.37,2.79l5-2.57,6,7.1-3.39,4.46a23.19,23.19,0,0,1,1.83,5.77l5.34,1.7-.8,9.25-5.55.76a22.68,22.68,0,0,1-2.79,5.37l2.57,5-7.1,6-4.46-3.39a23.19,23.19,0,0,1-5.77,1.83l-1.7,5.34-9.25-.8-.76-5.55a22.68,22.68,0,0,1-5.37-2.79l-5,2.57-6-7.1,3.39-4.46a22.76,22.76,0,0,1-1.82-5.77l-5.35-1.7.8-9.25,5.55-.76a22.68,22.68,0,0,1,2.79-5.37l-2.57-5,7.1-6,4.46,3.39Zm3.65,12.8a10,10,0,1,0,14,1.21A10,10,0,0,0,326.54,149.57Z" style="fill:#f5f5f5"></path></g><g id="freepik--Floor--inject-1381"><path d="M482.6,466.75c0,.15-104.76.26-233.95.26s-234-.11-234-.26,104.74-.26,234-.26S482.6,466.61,482.6,466.75Z" style="fill:#263238"></path></g><g id="freepik--puzzle-pieces--inject-1381"><path d="M254.4,461.85a7.58,7.58,0,0,0-1.9-5.46c-1.41-1.48-3-1.87-3-4.77.09-4.48,3.73-7.54,8.81-7.44s8.61,3.3,8.52,7.78c-.05,2.89-3.59,3.64-4.3,5.56a17.38,17.38,0,0,0-1,4.47,4.67,4.67,0,0,0,4.58,4.76l29.74-.28-.06-46.64L295.75,388H267.47c-2.58,0-4.42,2.43-4.47,5a4.62,4.62,0,0,0,1.39,3.43c1.48,1.41,3.54,3.91,3.49,6.8-.09,4.48-3.74,7.55-8.82,7.45s-8.6-3.31-8.52-7.79c.06-2.89,2.22-5.31,3.75-6.66a4.59,4.59,0,0,0,1.53-3.37,4.67,4.67,0,0,0-4.58-4.76l-33.3-.11v77.83l31.7.64A4.67,4.67,0,0,0,254.4,461.85Z" style="fill:#e0e0e0"></path><g style="opacity:0.30000000000000004"><path d="M254.4,461.85a7.58,7.58,0,0,0-1.9-5.46c-1.41-1.48-3-1.87-3-4.77.09-4.48,3.73-7.54,8.81-7.44s8.61,3.3,8.52,7.78c-.05,2.89-3.59,3.64-4.3,5.56a17.38,17.38,0,0,0-1,4.47,4.67,4.67,0,0,0,4.58,4.76l29.74-.28-.06-46.64L295.75,388H267.47c-2.58,0-4.42,2.43-4.47,5a4.62,4.62,0,0,0,1.39,3.43c1.48,1.41,3.54,3.91,3.49,6.8-.09,4.48-3.74,7.55-8.82,7.45s-8.6-3.31-8.52-7.79c.06-2.89,2.22-5.31,3.75-6.66a4.59,4.59,0,0,0,1.53-3.37,4.67,4.67,0,0,0-4.58-4.76l-33.3-.11v77.83l31.7.64A4.67,4.67,0,0,0,254.4,461.85Z"></path></g><path d="M248.53,461.85a4.59,4.59,0,0,0-1.4-3.42c-1.47-1.41-3.54-3.91-3.48-6.81.09-4.48,3.73-7.54,8.81-7.44s8.61,3.3,8.52,7.78c-.05,2.89-2.22,5.31-3.74,6.66a4.67,4.67,0,0,0,3,8.13l29.74-.28L290,419.83,289.88,388H261.6c-2.58,0-4.42,2.43-4.47,5a4.59,4.59,0,0,0,1.4,3.43c1.47,1.41,3.54,3.91,3.48,6.8-.09,4.48-3.74,7.55-8.82,7.45s-8.6-3.31-8.52-7.79c.06-2.89,2.22-5.31,3.75-6.66a4.59,4.59,0,0,0,1.53-3.37,4.67,4.67,0,0,0-4.58-4.76l-33.3-.11v77.83l31.7.64A4.67,4.67,0,0,0,248.53,461.85Z" style="fill:#ebebeb"></path><path d="M248.53,461.85a3.28,3.28,0,0,1,0,.66,4.55,4.55,0,0,1-.69,1.84,4.77,4.77,0,0,1-2.53,1.93,5.52,5.52,0,0,1-2.06.21l-2.36,0-28.78-.51h-.15v-.15c0-19.7,0-46.57-.08-77.83v-.23h.24l20.16,0,10.51,0h2.67a4.93,4.93,0,0,1,4.7,5.87,4.81,4.81,0,0,1-1.33,2.51,17.36,17.36,0,0,0-1.89,1.95,7.79,7.79,0,0,0-2,4.87,6.84,6.84,0,0,0,1.93,4.88,8.34,8.34,0,0,0,4.83,2.35,10.58,10.58,0,0,0,5.46-.54,7.2,7.2,0,0,0,4-3.67,6.83,6.83,0,0,0,.12-5.41,10.28,10.28,0,0,0-1.43-2.43,14,14,0,0,0-.94-1.08c-.31-.35-.7-.66-1-1.09a4.83,4.83,0,0,1-1-2.41,5.84,5.84,0,0,1,.32-2.56,4.85,4.85,0,0,1,3.71-3.31c.89-.09,1.66,0,2.5-.05h26.7V388c0,28.91.08,55.55.11,78.51v.21H290l-18.73.16-8.66.07-2.08,0a5.12,5.12,0,0,1-2.08-.38,4.9,4.9,0,0,1-2.72-3,4.84,4.84,0,0,1,.42-3.89,5.44,5.44,0,0,1,1.27-1.46,14.37,14.37,0,0,0,1.26-1.33,9.58,9.58,0,0,0,1.78-3.06,6.63,6.63,0,0,0,.23-3.36,7,7,0,0,0-3.65-5,10.35,10.35,0,0,0-5.67-1.14,9,9,0,0,0-4.88,1.73,7,7,0,0,0-2.53,3.77,6.84,6.84,0,0,0,.07,3.92,10.21,10.21,0,0,0,1.57,2.92,20.06,20.06,0,0,0,1.76,2,4.59,4.59,0,0,1,1,1.67,5.16,5.16,0,0,1,.2,1.16,2.29,2.29,0,0,1,0,.39,5.59,5.59,0,0,0-.26-1.53,4.53,4.53,0,0,0-1-1.63,18.81,18.81,0,0,1-1.79-1.95,10,10,0,0,1-1.62-2.94,7,7,0,0,1-.1-4,7.11,7.11,0,0,1,2.58-3.89,9.19,9.19,0,0,1,5-1.8,10.45,10.45,0,0,1,5.81,1.15,7.31,7.31,0,0,1,3.81,5.17,7.12,7.12,0,0,1-.22,3.51,10,10,0,0,1-1.83,3.16,15.15,15.15,0,0,1-1.29,1.37,5.46,5.46,0,0,0-1.21,1.38,4.52,4.52,0,0,0,2.16,6.39c1.21.54,2.63.29,4,.33l8.65-.1,18.72-.19-.21.21c-.05-23-.12-49.6-.19-78.51l.26.26H270.75c-3.22,0-6.55,0-9.74,0-3.15.47-4.73,4.94-2.74,7.45a13.25,13.25,0,0,0,1,1c.34.36.66.73,1,1.12a10.75,10.75,0,0,1,1.5,2.56,7.36,7.36,0,0,1-.13,5.82,7.67,7.67,0,0,1-4.24,3.93,11.1,11.1,0,0,1-5.73.57,8.85,8.85,0,0,1-5.12-2.5,7.4,7.4,0,0,1-2.08-5.24,8.3,8.3,0,0,1,2.08-5.19,16.56,16.56,0,0,1,1.93-2,4.3,4.3,0,0,0,1.19-2.25,4.44,4.44,0,0,0-4.21-5.27h-2.66l-10.52,0-20.16-.07.24-.24c0,31.26-.06,58.13-.08,77.83l-.15-.15,28.78.65,2.35.06a5.48,5.48,0,0,0,2-.19,4.63,4.63,0,0,0,2.5-1.86,4.82,4.82,0,0,0,.72-1.79C248.52,462.08,248.52,461.85,248.53,461.85Z" style="fill:#263238"></path><path d="M364.91,414.1a5.07,5.07,0,0,1-5.15,5,5,5,0,0,1-3.66-1.65c-1.48-1.65-4.11-4-7.25-4-4.87-.07-8.33,3.78-8.41,9.29s3.26,9.47,8.13,9.54c3.14.05,5.84-2.21,7.36-3.82a5.08,5.08,0,0,1,8.71,3.62l-.54,34.42,76.53-.35,0-36.16a5.07,5.07,0,0,1,8.81-3.35c1.48,1.65,4.11,4,7.25,4,4.87.07,8.33-3.77,8.42-9.29s-3.26-9.47-8.13-9.54c-3.14-.05-5.85,2.21-7.37,3.82a5,5,0,0,1-3.72,1.53c-2.8,0-5.5-2-5.46-4.83l-.14-30.71-75.79.35Z" style="fill:#1890FF"></path><g style="opacity:0.30000000000000004"><path d="M364.91,414.1a5.07,5.07,0,0,1-5.15,5,5,5,0,0,1-3.66-1.65c-1.48-1.65-4.11-4-7.25-4-4.87-.07-8.33,3.78-8.41,9.29s3.26,9.47,8.13,9.54c3.14.05,5.84-2.21,7.36-3.82a5.08,5.08,0,0,1,8.71,3.62l-.54,34.42,76.53-.35,0-36.16a5.07,5.07,0,0,1,8.81-3.35c1.48,1.65,4.11,4,7.25,4,4.87.07,8.33-3.77,8.42-9.29s-3.26-9.47-8.13-9.54c-3.14-.05-5.85,2.21-7.37,3.82a5,5,0,0,1-3.72,1.53c-2.8,0-5.5-2-5.46-4.83l-.14-30.71-75.79.35Z"></path></g><path d="M359.26,414.1a5.08,5.08,0,0,1-5.15,5,5,5,0,0,1-3.66-1.65c-1.48-1.65-4.11-4-7.25-4-4.87-.07-8.33,3.78-8.42,9.29s3.27,9.47,8.13,9.54c3.14.05,5.85-2.21,7.37-3.82A5.08,5.08,0,0,1,359,432l-.54,34.42,76.53-.35,0-36.16a5.07,5.07,0,0,1,8.81-3.35c1.48,1.65,4.11,4,7.25,4,4.87.07,8.33-3.77,8.42-9.29s-3.27-9.47-8.13-9.54c-3.14-.05-5.85,2.21-7.37,3.82a5,5,0,0,1-3.72,1.53c-2.8,0-5.5-2-5.46-4.83l-.14-30.71-75.79.35Z" style="fill:#1890FF"></path><path d="M359.26,414.1s0-.18,0-.54,0-.9-.05-1.6c0-1.43-.06-3.52-.12-6.25-.09-5.49-.23-13.52-.4-23.74v-.14h.14l75.79-.43h.23v.22c0,7.61.08,15.55.12,23.78,0,2.06,0,4.13,0,6.23a8.2,8.2,0,0,0,.08,1.51,4,4,0,0,0,.55,1.38,5.2,5.2,0,0,0,2.31,1.9,5.9,5.9,0,0,0,3,.46,4.69,4.69,0,0,0,2.71-1.31,13.1,13.1,0,0,1,5.45-3.68,7.81,7.81,0,0,1,1.67-.31,8.42,8.42,0,0,1,4.89,1.25,8.91,8.91,0,0,1,3.74,5.58,12.71,12.71,0,0,1-.38,6.83,8.4,8.4,0,0,1-4.66,5,8.66,8.66,0,0,1-3.49.61,8,8,0,0,1-3.42-1,13.18,13.18,0,0,1-2.86-2.1c-.43-.4-.84-.87-1.22-1.26a4.77,4.77,0,0,0-4.65-1.15,4.88,4.88,0,0,0-2.66,1.93,5.16,5.16,0,0,0-.83,3.23v3.57c0,10.88,0,21.57,0,32v.26H435l-76.53.31h-.23v-.23q.19-11.68.37-22.35.09-5.33.17-10.37a20.27,20.27,0,0,0,0-2.47,4.73,4.73,0,0,0-.89-2.17,4.89,4.89,0,0,0-6.17-1.49A6.18,6.18,0,0,0,350,429a13.63,13.63,0,0,1-3.71,2.63,7.91,7.91,0,0,1-8.22-.94,9.54,9.54,0,0,1-3.36-7,11.16,11.16,0,0,1,1.73-6.91,7.91,7.91,0,0,1,10.85-2.21,17.53,17.53,0,0,1,3.68,3.21,5,5,0,0,0,6.58,0,5,5,0,0,0,1.35-1.85,5.49,5.49,0,0,0,.41-1.84s0,.16,0,.48a5.13,5.13,0,0,1-.34,1.39,5,5,0,0,1-1.34,1.9,5.12,5.12,0,0,1-6.76.06,18,18,0,0,0-3.67-3.17A7.7,7.7,0,0,0,336.6,417,10.89,10.89,0,0,0,335,423.7a9.22,9.22,0,0,0,3.26,6.76,7.58,7.58,0,0,0,7.89.88,13,13,0,0,0,3.6-2.58,6.51,6.51,0,0,1,1.83-1.48,5.15,5.15,0,0,1,2.34-.57,5.27,5.27,0,0,1,5.26,4.5,21.43,21.43,0,0,1,0,2.53q-.07,5-.15,10.37-.17,10.65-.34,22.35l-.22-.22,76.53-.38-.25.25c0-10.41,0-21.1-.05-32v-3.56a5.71,5.71,0,0,1,.92-3.53,5.34,5.34,0,0,1,6.57-1.88,5.12,5.12,0,0,1,1.53,1c.43.45.79.86,1.21,1.26a12.81,12.81,0,0,0,2.75,2,7.47,7.47,0,0,0,3.2.92,8.09,8.09,0,0,0,3.27-.57,7.88,7.88,0,0,0,4.37-4.74,12,12,0,0,0,.37-6.53,8.32,8.32,0,0,0-3.52-5.27,7.46,7.46,0,0,0-3-1.1,7,7,0,0,0-3.15.21,12.61,12.61,0,0,0-5.24,3.55,5.19,5.19,0,0,1-3,1.45,6.36,6.36,0,0,1-3.26-.5,5.65,5.65,0,0,1-2.52-2.09,4.58,4.58,0,0,1-.62-1.54,9,9,0,0,1-.09-1.62q0-3.14,0-6.22c0-8.23-.06-16.17-.09-23.77l.22.22-75.79.25L359,382c.11,10.23.2,18.26.27,23.75,0,2.73,0,4.82,0,6.25v1.6C359.27,413.92,359.26,414.1,359.26,414.1Z" style="fill:#263238"></path><path d="M373.93,421.5c-1.58,0-6.58-.72-7.68.43-1.74,1.81-1.36,5.66-4.93,5.59-5.53-.11-9.31-4.6-9.18-10.87s4.07-10.61,9.6-10.5c3.56.06,2.49,5.54,4.85,6.41,1.4.51,5.93.06,7.52.09A5.75,5.75,0,0,0,380,407l-.35-36.68-57.52.08-39.3.1v34.87c-.06,3.18,3,5.46,6.18,5.52a5.68,5.68,0,0,0,4.22-1.72c1.74-1.82,4.83-4.37,8.39-4.3,5.53.11,9.31,4.61,9.19,10.87s-4.08,10.61-9.6,10.51c-3.57-.07-6.55-2.74-8.22-4.62a5.67,5.67,0,0,0-4.15-1.89,5.75,5.75,0,0,0-5.87,5.64l-.14,41.07h96l.79-39.09A5.76,5.76,0,0,0,373.93,421.5Z" style="fill:#263238"></path><path d="M367.87,421.5a5.68,5.68,0,0,0-4.22,1.73c-1.74,1.81-4.82,4.36-8.39,4.29-5.53-.11-9.3-4.6-9.18-10.87s4.07-10.61,9.6-10.5c3.57.06,6.55,2.73,8.21,4.61a5.68,5.68,0,0,0,4.16,1.89,5.75,5.75,0,0,0,5.87-5.64l-.35-36.68-57.52.08-39.3.1v34.87c-.06,3.18,3,5.46,6.18,5.52a5.72,5.72,0,0,0,4.23-1.72c1.74-1.82,4.82-4.37,8.38-4.3,5.53.11,9.31,4.61,9.19,10.87s-4.07,10.61-9.6,10.51c-3.57-.07-6.55-2.74-8.22-4.62a5.66,5.66,0,0,0-4.15-1.89,5.75,5.75,0,0,0-5.87,5.64l-.14,41.07h96l.79-39.09A5.76,5.76,0,0,0,367.87,421.5Z" style="fill:#455a64"></path><path d="M367.87,421.5a4.22,4.22,0,0,1,.82.06,5.52,5.52,0,0,1,2.26.85,5.84,5.84,0,0,1,2.37,3.12,6.92,6.92,0,0,1,.26,2.53c0,.91,0,1.88-.05,2.91-.15,8.23-.37,20.26-.65,35.49v.15h-.15l-96,.08h-.23v-.23q0-12.06.07-24.87c0-4.26,0-8.59,0-13,0-1.1,0-2.2,0-3.3a6,6,0,0,1,1.06-3.24,6,6,0,0,1,6.1-2.49,5.89,5.89,0,0,1,3.07,1.62,21.27,21.27,0,0,0,2.41,2.34,9.63,9.63,0,0,0,6,2.43,8.52,8.52,0,0,0,6.06-2.4,10.31,10.31,0,0,0,2.92-6,13.5,13.5,0,0,0,.1-3.42,10.92,10.92,0,0,0-.78-3.34,8.91,8.91,0,0,0-4.54-4.92,8.51,8.51,0,0,0-6.73-.15,12.57,12.57,0,0,0-3,1.78c-.46.36-.91.75-1.34,1.15a16.12,16.12,0,0,1-1.33,1.25,5.9,5.9,0,0,1-2.95,1.17,7.24,7.24,0,0,1-3.13-.39A6.88,6.88,0,0,1,278,409a5.22,5.22,0,0,1-1.4-2.82,11.8,11.8,0,0,1-.06-1.55V394.1q0-12,0-23.59v-.25h.25l96.82-.14h.21v.21c.07,8.06.14,15.77.2,23.09,0,3.65.06,7.22.09,10.67q0,1.31,0,2.58a6.31,6.31,0,0,1-.48,2.54A5.94,5.94,0,0,1,365.2,412a6.92,6.92,0,0,1-1.79-1.56,18.49,18.49,0,0,0-1.64-1.56,11.8,11.8,0,0,0-3.78-2.21,8.43,8.43,0,0,0-4.16-.27,8.7,8.7,0,0,0-6.18,4.51,12.75,12.75,0,0,0-1.41,7,11.16,11.16,0,0,0,2.14,6,8.73,8.73,0,0,0,9.51,3,12.29,12.29,0,0,0,3.6-1.95,22.68,22.68,0,0,0,2.42-2.17,5.58,5.58,0,0,1,2.06-1.16,5,5,0,0,1,1.42-.25,2.89,2.89,0,0,1,.48,0l-.48,0a5.94,5.94,0,0,0-1.4.28,5.57,5.57,0,0,0-2,1.17,23.48,23.48,0,0,1-2.4,2.21,12.5,12.5,0,0,1-3.63,2,8.67,8.67,0,0,1-4.94.12,8.81,8.81,0,0,1-4.79-3.17A11.32,11.32,0,0,1,346,418a12.94,12.94,0,0,1,1.41-7.16,9,9,0,0,1,6.36-4.67,8.56,8.56,0,0,1,4.31.27,12.09,12.09,0,0,1,3.89,2.25,18,18,0,0,1,1.68,1.59,6.42,6.42,0,0,0,1.72,1.49,5.61,5.61,0,0,0,7.93-2.68c.67-1.5.36-3.26.41-5,0-3.45-.08-7-.11-10.67-.08-7.32-.16-15-.25-23.09l.22.21-96.82.23.26-.26v34.14a11.89,11.89,0,0,0,.06,1.48,5.4,5.4,0,0,0,3.7,4.11,6.82,6.82,0,0,0,2.9.37,5.51,5.51,0,0,0,2.69-1.07,16,16,0,0,0,1.28-1.22c.44-.41.9-.81,1.38-1.18a12.72,12.72,0,0,1,3.14-1.85,9,9,0,0,1,7.13.16,9.42,9.42,0,0,1,4.82,5.2,11.92,11.92,0,0,1,.81,3.48,14.06,14.06,0,0,1-.11,3.55,10.79,10.79,0,0,1-3.07,6.28,9.06,9.06,0,0,1-6.42,2.55A10.15,10.15,0,0,1,289,424a20.39,20.39,0,0,1-2.45-2.37,5.35,5.35,0,0,0-2.8-1.48,5.51,5.51,0,0,0-6.57,5.24c0,1.1,0,2.2,0,3.29q0,6.57-.05,13,0,12.79-.09,24.86l-.24-.24,96,.09-.15.15c.33-15.23.6-27.26.79-35.5,0-1,0-2,.07-2.9a6.88,6.88,0,0,0-.24-2.49,5.72,5.72,0,0,0-4.52-4C368.15,421.51,367.87,421.52,367.87,421.5Z" style="fill:#263238"></path></g><g id="freepik--Puzzle--inject-1381"><path d="M274.38,176.63c-1.63,0-6.79-.74-7.92.44-1.79,1.87-1.4,5.84-5.08,5.77-5.7-.11-9.59-4.75-9.46-11.21s4.19-10.94,9.89-10.83c3.68.08,2.57,5.72,5,6.61,1.44.53,6.11.07,7.75.1a5.93,5.93,0,0,0,6.05-5.82l-.36-37.8L221,124l-40.51.11V160c-.06,3.28,3.09,5.62,6.37,5.69a5.87,5.87,0,0,0,4.35-1.78c1.79-1.88,5-4.5,8.65-4.43,5.7.11,9.59,4.75,9.46,11.21s-4.19,10.93-9.89,10.82c-3.68-.07-6.75-2.82-8.47-4.76a5.93,5.93,0,0,0-10.33,3.87L180.46,223h98.92l.82-40.29A5.94,5.94,0,0,0,274.38,176.63Z" style="fill:#263238"></path><path d="M267.58,176.63a5.87,5.87,0,0,0-4.35,1.78c-1.79,1.87-5,4.5-8.65,4.43-5.69-.11-9.59-4.75-9.46-11.21s4.2-10.94,9.89-10.83c3.68.08,6.75,2.83,8.47,4.77a5.86,5.86,0,0,0,4.28,1.94,5.93,5.93,0,0,0,6.05-5.82l-.36-37.8-59.28.08-40.51.11V160c-.06,3.28,3.09,5.62,6.37,5.69a5.89,5.89,0,0,0,4.36-1.78c1.79-1.88,5-4.5,8.64-4.43,5.7.11,9.59,4.75,9.47,11.21s-4.2,10.93-9.9,10.82c-3.68-.07-6.75-2.82-8.47-4.76a5.93,5.93,0,0,0-10.33,3.87L173.66,223h98.93l.81-40.29A5.94,5.94,0,0,0,267.58,176.63Z" style="fill:#455a64"></path><path d="M267.58,176.63a4.53,4.53,0,0,1,.85.06,5.7,5.7,0,0,1,2.32.89,5.93,5.93,0,0,1,2.44,3.21,6.91,6.91,0,0,1,.27,2.61c0,.93,0,1.93,0,3-.16,8.49-.38,20.89-.67,36.58v.15h-.15l-98.93.09h-.23V223q0-12.42.07-25.63,0-6.59,0-13.36c0-1.13,0-2.26,0-3.4a6.38,6.38,0,0,1,1.09-3.34,6.25,6.25,0,0,1,6.29-2.56,6.16,6.16,0,0,1,3.16,1.67,20.88,20.88,0,0,0,2.48,2.41,10,10,0,0,0,6.23,2.51,8.86,8.86,0,0,0,6.26-2.47,10.73,10.73,0,0,0,3-6.19,14.37,14.37,0,0,0,.1-3.53,11.58,11.58,0,0,0-.8-3.44,9.14,9.14,0,0,0-4.7-5.07,8.74,8.74,0,0,0-6.93-.16,13.37,13.37,0,0,0-3.11,1.83c-.48.38-.94.78-1.38,1.19a17.18,17.18,0,0,1-1.37,1.3,6.22,6.22,0,0,1-3,1.2,7.53,7.53,0,0,1-3.23-.41,7.08,7.08,0,0,1-2.72-1.75,5.36,5.36,0,0,1-1.44-2.91,12.49,12.49,0,0,1-.06-1.6V148.38q0-12.34,0-24.3v-.26h.25l99.79-.14h.21v.21q.12,12.46.21,23.79.06,5.67.1,11c0,.89,0,1.78,0,2.66a6.3,6.3,0,0,1-.48,2.61,6.14,6.14,0,0,1-8.68,2.92,7,7,0,0,1-1.84-1.61,17.16,17.16,0,0,0-1.7-1.61,11.94,11.94,0,0,0-3.9-2.27,8.6,8.6,0,0,0-4.29-.29,9,9,0,0,0-6.37,4.66,13.13,13.13,0,0,0-1.45,7.22,11.45,11.45,0,0,0,2.21,6.23,8.8,8.8,0,0,0,4.81,3.21,8.63,8.63,0,0,0,5-.09,12.61,12.61,0,0,0,3.7-2,24.32,24.32,0,0,0,2.5-2.24,5.65,5.65,0,0,1,2.12-1.2,5.75,5.75,0,0,1,1.46-.26,3.15,3.15,0,0,1,.5,0s-.17,0-.5,0a6,6,0,0,0-1.44.29,5.63,5.63,0,0,0-2.08,1.21,23,23,0,0,1-2.48,2.27,12.83,12.83,0,0,1-3.73,2,8.79,8.79,0,0,1-5.1.12,9,9,0,0,1-4.93-3.26A11.63,11.63,0,0,1,245,173a13.35,13.35,0,0,1,1.46-7.37,9.26,9.26,0,0,1,6.55-4.82,9,9,0,0,1,4.44.28,12.65,12.65,0,0,1,4,2.32,19,19,0,0,1,1.73,1.64,6.66,6.66,0,0,0,1.77,1.54,5.78,5.78,0,0,0,8.18-2.77c.7-1.54.37-3.36.42-5.13q0-5.34-.11-11-.12-11.33-.25-23.8l.21.21-99.79.23.26-.25v35.18a10.94,10.94,0,0,0,.06,1.53A5.58,5.58,0,0,0,177.8,165a6.92,6.92,0,0,0,3,.38,5.67,5.67,0,0,0,2.78-1.1c.46-.34.85-.82,1.32-1.25s.93-.84,1.42-1.23a13.78,13.78,0,0,1,3.23-1.9,9.29,9.29,0,0,1,7.35.16,9.72,9.72,0,0,1,5,5.36,12.29,12.29,0,0,1,.84,3.58,14.93,14.93,0,0,1-.11,3.66,11.3,11.3,0,0,1-3.16,6.48,9.36,9.36,0,0,1-6.62,2.61,10.43,10.43,0,0,1-6.55-2.63,20.92,20.92,0,0,1-2.53-2.44,5.54,5.54,0,0,0-2.89-1.53,5.68,5.68,0,0,0-6.77,5.41c0,1.14,0,2.27,0,3.39q0,6.77,0,13.37,0,13.18-.09,25.62l-.24-.23,98.93.08-.16.15c.35-15.7.63-28.1.82-36.58,0-1.06.05-2.06.07-3a6.91,6.91,0,0,0-.25-2.57,5.84,5.84,0,0,0-2.37-3.17,5.72,5.72,0,0,0-2.28-.91C267.87,176.64,267.58,176.65,267.58,176.63Z" style="fill:#263238"></path><path d="M477.71,176.63c-1.63,0-6.78-.74-7.91.44-1.8,1.87-1.41,5.84-5.09,5.77-5.69-.11-9.59-4.75-9.46-11.21s4.2-10.94,9.89-10.83c3.68.08,2.57,5.72,5,6.61,1.43.53,6.11.07,7.74.1a5.93,5.93,0,0,0,6.05-5.82l-.36-37.8L424.3,124l-40.51.11V160c-.06,3.28,3.09,5.62,6.37,5.69a5.89,5.89,0,0,0,4.36-1.78c1.79-1.88,5-4.5,8.64-4.43,5.7.11,9.59,4.75,9.47,11.21s-4.2,10.93-9.9,10.82c-3.67-.07-6.75-2.82-8.47-4.76a5.93,5.93,0,0,0-10.33,3.87L383.79,223h98.93l.81-40.29A5.94,5.94,0,0,0,477.71,176.63Z" style="fill:#263238"></path><path d="M471.47,176.63a5.85,5.85,0,0,0-4.35,1.78c-1.8,1.87-5,4.5-8.65,4.43-5.7-.11-9.59-4.75-9.47-11.21s4.2-10.94,9.9-10.83c3.68.08,6.75,2.83,8.47,4.77a5.84,5.84,0,0,0,4.28,1.94,5.93,5.93,0,0,0,6.05-5.82l-.36-37.8-59.28.08-40.51.11V160c-.07,3.28,3.09,5.62,6.37,5.69a5.87,5.87,0,0,0,4.35-1.78c1.79-1.88,5-4.5,8.65-4.43,5.7.11,9.59,4.75,9.46,11.21s-4.2,10.93-9.89,10.82c-3.68-.07-6.75-2.82-8.47-4.76a5.93,5.93,0,0,0-10.33,3.87L377.55,223h98.92l.82-40.29A6,6,0,0,0,471.47,176.63Z" style="fill:#455a64"></path><path d="M471.47,176.63a4.42,4.42,0,0,1,.84.06,5.65,5.65,0,0,1,2.32.89,5.89,5.89,0,0,1,2.45,3.21,7.34,7.34,0,0,1,.27,2.61c0,.93,0,1.93-.05,3-.16,8.49-.39,20.89-.68,36.58v.15h-.15l-98.92.09h-.24V223q0-12.42.08-25.63,0-6.59,0-13.36c0-1.13,0-2.26,0-3.4a6.18,6.18,0,0,1,7.37-5.9,6.12,6.12,0,0,1,3.16,1.67,21.67,21.67,0,0,0,2.48,2.41,10,10,0,0,0,6.24,2.51,8.82,8.82,0,0,0,6.25-2.47,10.67,10.67,0,0,0,3-6.19,14.37,14.37,0,0,0,.11-3.53,11.59,11.59,0,0,0-.81-3.44,9.12,9.12,0,0,0-4.69-5.07,8.77,8.77,0,0,0-6.94-.16,13.31,13.31,0,0,0-3.1,1.83c-.48.38-.94.78-1.38,1.19s-.84.9-1.37,1.3a6.25,6.25,0,0,1-3,1.2,7.48,7.48,0,0,1-3.22-.41,7.08,7.08,0,0,1-2.72-1.75,5.36,5.36,0,0,1-1.44-2.91,10.9,10.9,0,0,1-.06-1.6V123.82h.26l99.79-.14h.21v.21q.1,12.46.21,23.79,0,5.67.09,11l0,2.66a6.31,6.31,0,0,1-.49,2.61,6.13,6.13,0,0,1-8.67,2.92,6.82,6.82,0,0,1-1.84-1.61,18.34,18.34,0,0,0-1.7-1.61,12.14,12.14,0,0,0-3.9-2.27,8.6,8.6,0,0,0-4.29-.29,9,9,0,0,0-6.37,4.66,13.13,13.13,0,0,0-1.45,7.22,11.45,11.45,0,0,0,2.21,6.23,8.78,8.78,0,0,0,4.8,3.21,8.63,8.63,0,0,0,5-.09,12.67,12.67,0,0,0,3.71-2,23.12,23.12,0,0,0,2.49-2.24,5.81,5.81,0,0,1,3.59-1.46,3.15,3.15,0,0,1,.5,0s-.17,0-.5,0a6,6,0,0,0-1.45.29,5.68,5.68,0,0,0-2.07,1.21,24,24,0,0,1-2.48,2.27,12.89,12.89,0,0,1-3.74,2,8.75,8.75,0,0,1-5.09.12,8.93,8.93,0,0,1-4.93-3.26,11.72,11.72,0,0,1-2.29-6.34,13.52,13.52,0,0,1,1.46-7.37,9.29,9.29,0,0,1,6.56-4.82,9,9,0,0,1,4.44.28,12.61,12.61,0,0,1,4,2.32,16.71,16.71,0,0,1,1.73,1.64,6.82,6.82,0,0,0,1.77,1.54,5.85,5.85,0,0,0,4.64.48,5.77,5.77,0,0,0,3.54-3.25c.7-1.54.38-3.36.43-5.13q-.06-5.34-.12-11-.12-11.33-.24-23.8l.21.21-99.79.23.25-.25q0,11.94,0,24.31v10.87a11,11,0,0,0,.05,1.53,5.59,5.59,0,0,0,3.83,4.24,6.88,6.88,0,0,0,3,.38,5.6,5.6,0,0,0,2.78-1.1,16.93,16.93,0,0,0,1.33-1.25,18.69,18.69,0,0,1,1.42-1.23,13.78,13.78,0,0,1,3.23-1.9,9.27,9.27,0,0,1,7.34.16,9.69,9.69,0,0,1,5,5.36,12,12,0,0,1,.84,3.58,14.45,14.45,0,0,1-.11,3.66,11.18,11.18,0,0,1-3.16,6.48,9.35,9.35,0,0,1-6.61,2.61,10.44,10.44,0,0,1-6.56-2.63,21.58,21.58,0,0,1-2.52-2.44,5.58,5.58,0,0,0-2.89-1.53,5.7,5.7,0,0,0-6.78,5.41c0,1.14,0,2.27,0,3.39q0,6.77-.05,13.37,0,13.18-.1,25.62l-.23-.23,98.92.08-.15.15c.35-15.7.62-28.1.81-36.58,0-1.06.05-2.06.07-3a7.13,7.13,0,0,0-.24-2.57,5.89,5.89,0,0,0-2.37-3.17,5.75,5.75,0,0,0-2.29-.91C471.76,176.64,471.47,176.65,471.47,176.63Z" style="fill:#263238"></path><path d="M85.27,161.6a5.93,5.93,0,0,1-6,5.82,5.83,5.83,0,0,1-4.28-1.95c-1.72-1.94-4.79-4.69-8.47-4.76-5.69-.11-9.77,4.37-9.89,10.83s3.76,11.09,9.46,11.2c3.68.08,6.86-2.55,8.65-4.42A5.83,5.83,0,0,1,79,176.54a5.93,5.93,0,0,1,5.82,6.05l-.81,40.29h89.58l.14-42.33a5.93,5.93,0,0,1,6-5.82,5.83,5.83,0,0,1,4.28,2c1.72,1.94,4.79,4.69,8.47,4.76,5.69.11,9.77-4.37,9.89-10.83s-3.77-11.09-9.46-11.2c-3.68-.08-6.86,2.55-8.65,4.42a5.83,5.83,0,0,1-4.35,1.78c-3.28-.06-6.44-2.41-6.37-5.69V124H84.91Z" style="fill:#455a64"></path><path d="M85.27,161.6s0-.21,0-.63,0-1.06,0-1.88c0-1.66-.06-4.12-.1-7.31C85,145.36,84.92,136,84.78,124v-.14h.14l88.72-.09h.22V124q0,13.36,0,27.83v7.29a9.55,9.55,0,0,0,.09,1.79,4.62,4.62,0,0,0,.64,1.62,6.09,6.09,0,0,0,2.71,2.25,6.86,6.86,0,0,0,3.52.56,5.5,5.5,0,0,0,3.21-1.53,15.26,15.26,0,0,1,6.37-4.26,9.18,9.18,0,0,1,2-.36,10.91,10.91,0,0,1,2,.1,9.25,9.25,0,0,1,3.71,1.39,10.37,10.37,0,0,1,4.33,6.52,14.83,14.83,0,0,1-.48,8,9.82,9.82,0,0,1-5.46,5.85,10,10,0,0,1-4.06.69,9.26,9.26,0,0,1-4-1.16,15.75,15.75,0,0,1-3.32-2.47c-.5-.47-1-1-1.42-1.48a5.6,5.6,0,0,0-1.62-1.1,5.69,5.69,0,0,0-7,2,6.05,6.05,0,0,0-1,3.8c0,1.39,0,2.79,0,4.18,0,12.74-.08,25.26-.13,37.44v.26h-.25l-89.58,0h-.23v-.23q.29-13.68.55-26.16.13-6.22.26-12.13a23.3,23.3,0,0,0,0-2.9,5.49,5.49,0,0,0-1-2.56,5.72,5.72,0,0,0-4.68-2.4,5.66,5.66,0,0,0-2.57.61,5.49,5.49,0,0,0-1.1.72c-.33.28-.63.62-1,.94a15.68,15.68,0,0,1-4.34,3.06,9.27,9.27,0,0,1-9.6-1.14,10.12,10.12,0,0,1-2.85-3.77,12.64,12.64,0,0,1-1-4.42,13,13,0,0,1,2-8.07,9.23,9.23,0,0,1,12.69-2.53,20.59,20.59,0,0,1,4.29,3.78,5.9,5.9,0,0,0,7.72,0,5.76,5.76,0,0,0,1.58-2.17,6.42,6.42,0,0,0,.49-2.15s0,.19,0,.56a6.1,6.1,0,0,1-.4,1.62A6,6,0,0,1,83.27,166a6,6,0,0,1-7.9,0,20.74,20.74,0,0,0-4.28-3.73,9,9,0,0,0-12.37,2.51,12.78,12.78,0,0,0-2,7.9,10.85,10.85,0,0,0,3.79,8,9,9,0,0,0,9.26,1.08,15.42,15.42,0,0,0,4.24-3c.32-.3.61-.64,1-.95a5.77,5.77,0,0,1,1.17-.77,6,6,0,0,1,2.73-.65A6.11,6.11,0,0,1,85,181.63a26.47,26.47,0,0,1,0,3q-.12,5.91-.24,12.14-.24,12.47-.51,26.16l-.22-.23,89.58,0-.26.26c0-12.19.08-24.7.12-37.45,0-1.39,0-2.78,0-4.17a6.64,6.64,0,0,1,1.09-4.09,6.2,6.2,0,0,1,7.65-2.16,5.9,5.9,0,0,1,1.77,1.2c.5.52.92,1,1.42,1.47a14.57,14.57,0,0,0,3.21,2.39,8.83,8.83,0,0,0,3.76,1.1,9.52,9.52,0,0,0,3.85-.65,9.29,9.29,0,0,0,5.17-5.55,14.24,14.24,0,0,0,.46-7.68,9.85,9.85,0,0,0-4.11-6.21,8.85,8.85,0,0,0-3.51-1.31,10.66,10.66,0,0,0-1.87-.1,8.69,8.69,0,0,0-1.83.34,14.66,14.66,0,0,0-6.17,4.14,6.07,6.07,0,0,1-3.49,1.66,7.42,7.42,0,0,1-3.79-.59,6.52,6.52,0,0,1-2.92-2.45,5.25,5.25,0,0,1-.71-1.79,10.06,10.06,0,0,1-.1-1.88q0-3.67,0-7.29,0-14.44,0-27.83l.23.23-88.72-.09.14-.14c.09,12,.16,21.38.2,27.8,0,3.19,0,5.65,0,7.31V161C85.28,161.39,85.27,161.6,85.27,161.6Z" style="fill:#263238"></path><path d="M79.5,176.63a5.14,5.14,0,0,0-4,1.78c-1.64,1.87-4.54,4.5-7.9,4.43-5.21-.11-8.77-4.75-8.66-11.21S62.8,160.69,68,160.8c3.36.08,6.17,2.83,7.74,4.77a5.17,5.17,0,0,0,3.91,1.94,5.68,5.68,0,0,0,5.54-5.82l-.33-37.8-54.2.08-16,.11V223h69.4l.75-40.29A5.73,5.73,0,0,0,79.5,176.63Z" style="fill:#455a64"></path><path d="M79.5,176.63h.22a3,3,0,0,1,.64.07,5.06,5.06,0,0,1,2.28,1,6.08,6.08,0,0,1,2.11,3.48,11.24,11.24,0,0,1,.13,2.63c0,.94,0,1.94,0,3-.14,8.48-.34,20.78-.59,36.12v.16h-.17l-69.4.07h-.24V223c0-23.92,0-50.41,0-78.24V123.82h.26c12.64-.11,24.91-.12,36.65-.13l33.55,0h.22v.23c.06,7.9.12,15.49.18,22.71,0,3.62,0,7.14.08,10.56,0,1.72.06,3.39,0,5.08A6.27,6.27,0,0,1,83,166.58a5.27,5.27,0,0,1-6.76-.23c-.6-.54-1-1.18-1.54-1.71a13.62,13.62,0,0,0-3.41-2.73,7.1,7.1,0,0,0-4-.92,8,8,0,0,0-6.41,4A13.36,13.36,0,0,0,59.1,172a13.11,13.11,0,0,0,1.48,6.3,8.38,8.38,0,0,0,4.12,3.84,7.55,7.55,0,0,0,4.85.37,10.34,10.34,0,0,0,3.64-1.94,18.15,18.15,0,0,0,2.38-2.28,5.35,5.35,0,0,1,2-1.34,5,5,0,0,1,1.43-.3,3.15,3.15,0,0,1,.5,0,5.66,5.66,0,0,0-1.91.37,5.35,5.35,0,0,0-1.94,1.35,18.77,18.77,0,0,1-2.37,2.32,10.49,10.49,0,0,1-3.68,2,7.79,7.79,0,0,1-5-.34,8.59,8.59,0,0,1-4.25-3.92A13.29,13.29,0,0,1,58.83,172a13.67,13.67,0,0,1,1.78-7.11,9.05,9.05,0,0,1,2.72-2.9,7.68,7.68,0,0,1,3.93-1.31,7.36,7.36,0,0,1,4.2.94A13.8,13.8,0,0,1,75,164.4c.54.54,1,1.2,1.52,1.68a5.17,5.17,0,0,0,2,1.07,4.88,4.88,0,0,0,4.33-.87A5.83,5.83,0,0,0,85,162.2c.06-1.62,0-3.34,0-5,0-3.42-.07-6.94-.11-10.56q-.1-10.83-.21-22.71l.23.23-33.55.07c-11.74,0-24,0-36.65.15l.26-.26v20.65c0,27.83,0,54.32,0,78.24l-.24-.24,69.4.07-.17.17c.32-15.33.58-27.64.75-36.12,0-1.06,0-2.06.07-3a11,11,0,0,0-.11-2.6,5.93,5.93,0,0,0-2-3.43,5.28,5.28,0,0,0-2.23-1.08C79.79,176.64,79.5,176.65,79.5,176.63Z" style="fill:#263238"></path><path d="M84.89,223s5.64-61.2,8.31-69,26.57-14.9,26.57-14.9l6.36-5.71,2.38-5.62V124H147l2.34,99Z" style="opacity:0.30000000000000004"></path></g><g id="freepik--speech-bubble--inject-1381"><path d="M201.12,87.36,204.71,80a26.27,26.27,0,1,1,4.77,8.1v0Z" style="fill:#fff"></path><path d="M201.12,87.36l.57,0,1.61.13,6.2.52-.11.16h0l-.37-.75.56.63a26.33,26.33,0,0,0,10.49,7.29A26,26,0,0,0,251.73,58l-.82-1.37L250,55.37l-.46-.64-.53-.59L247.92,53a26.28,26.28,0,0,0-16.07-7.76,26.08,26.08,0,0,0-27,34.8v0l0,0-2.72,5.38-.71,1.4-.26.49s.06-.15.21-.46.37-.8.65-1.4L204.61,80v.09a26.09,26.09,0,0,1-1.39-12.82,26.45,26.45,0,0,1,28.67-22.55A26.87,26.87,0,0,1,248.3,52.6l1.07,1.2.53.6.48.66,1,1.3.84,1.4a26.41,26.41,0,0,1-14.53,38.32,26.18,26.18,0,0,1-28.25-7.87l.18-.12v0l.08.18-.19,0-6.26-.67-1.58-.17Z" style="fill:#263238"></path><polygon points="216.83 71.52 220.22 68.13 226.76 73.94 239.6 61.59 242.75 64.98 226.28 80.48 216.83 71.52" style="fill:#1890FF"></polygon></g><g id="freepik--Character--inject-1381"><path d="M172.61,432.08l-.84,22.05s22.13,8.25,22.38,12.34l-42.81-.09-.11-34.4Z" style="fill:#263238"></path><path d="M158.54,452.25a1.74,1.74,0,0,0-1.21,2,1.68,1.68,0,0,0,2,1.22,1.85,1.85,0,0,0,1.28-2.12,1.75,1.75,0,0,0-2.19-1" style="fill:#e0e0e0"></path><path d="M151.34,466.38l.12-3.46,41,1.38s1.9.83,1.69,2.17Z" style="fill:#455a64"></path><path d="M172.47,453.91c0,.21-1.05.3-2.08,1s-1.58,1.55-1.78,1.47.13-1.29,1.39-2.08S172.51,453.72,172.47,453.91Z" style="fill:#fff"></path><path d="M177,455.78c.05.2-.85.55-1.57,1.44s-.91,1.81-1.12,1.8-.34-1.19.56-2.27S177,455.58,177,455.78Z" style="fill:#fff"></path><path d="M179.49,461.16c-.19,0-.48-1,.06-2.15s1.52-1.59,1.61-1.42-.52.78-.95,1.73S179.7,461.14,179.49,461.16Z" style="fill:#fff"></path><path d="M172.1,448.87c-.09.19-1-.1-2.23,0s-2.1.45-2.21.27.78-.92,2.17-1S172.2,448.7,172.1,448.87Z" style="fill:#fff"></path><path d="M120.21,429.08l-2.32,26.59,4.23,21.57a2.73,2.73,0,0,1-2.34,3.24h0a2.73,2.73,0,0,1-2.35-.86c-3.81-4.16-17.77-19.53-17.49-21.47.32-2.24.58-28.21.58-28.21Z" style="fill:#263238"></path><path d="M119.78,480.48l-19.73-24.13-.07,1.13a4.17,4.17,0,0,0,.8,2.73c1.57,2.09,6,7.79,16.57,19.4a2.72,2.72,0,0,0,2.43.87Z" style="fill:#455a64"></path><g style="opacity:0.6000000000000001"><path d="M106.07,448.11a1.65,1.65,0,0,1,.31,2.19,1.6,1.6,0,0,1-2.16.33,1.75,1.75,0,0,1-.32-2.32,1.65,1.65,0,0,1,2.29-.09" style="fill:#fff"></path></g><path d="M114.44,468.45a5.91,5.91,0,0,1,5.57-2.31c0-.07-.29-.3-.91-.43a4.29,4.29,0,0,0-2.42.27,4.36,4.36,0,0,0-1.89,1.52C114.44,468,114.38,468.42,114.44,468.45Z" style="fill:#fff"></path><path d="M116.11,472.14a21.94,21.94,0,0,1,2.43-1,23.75,23.75,0,0,1,2.63-.17,3.07,3.07,0,0,0-2.76-.4C116.81,470.93,116,472.06,116.11,472.14Z" style="fill:#fff"></path><path d="M111.2,463.65a27.09,27.09,0,0,1,3.65-1.79c2.13-.7,4-.49,4-.67a7.47,7.47,0,0,0-7.66,2.46Z" style="fill:#fff"></path><path d="M111.23,455.51c.06.16,1.57-.36,3.49-.31s3.41.61,3.48.45a5.33,5.33,0,0,0-3.47-1A5.22,5.22,0,0,0,111.23,455.51Z" style="fill:#fff"></path><path d="M111.71,447.68a13.61,13.61,0,0,1,3.63-.41c2,.18,3.37,1.26,3.48,1.11s-.23-.4-.82-.8a5.92,5.92,0,0,0-2.6-.89,5.7,5.7,0,0,0-2.73.37C112,447.33,111.68,447.62,111.71,447.68Z" style="fill:#fff"></path><path d="M115.39,445.78a2.33,2.33,0,0,0,.1-1,7,7,0,0,0-.63-2.69,3.11,3.11,0,0,0-1.24-1.56,1.08,1.08,0,0,0-1.25.16,1.78,1.78,0,0,0-.5,1.18,3.86,3.86,0,0,0,3.15,3.78,4.48,4.48,0,0,0,4.55-2.06,1.57,1.57,0,0,0,.16-1.28,1.07,1.07,0,0,0-1.09-.64,3.86,3.86,0,0,0-1.82.79,7.88,7.88,0,0,0-1.95,2,2.45,2.45,0,0,0-.47.89,12.82,12.82,0,0,1,2.65-2.5,3.69,3.69,0,0,1,1.6-.66.59.59,0,0,1,.6.35,1.08,1.08,0,0,1-.16.84,4,4,0,0,1-4,1.74,3.37,3.37,0,0,1-2.72-3.18,1.32,1.32,0,0,1,.31-.83.61.61,0,0,1,.69-.11,2.81,2.81,0,0,1,1.07,1.31A10.41,10.41,0,0,1,115.39,445.78Z" style="fill:#fff"></path><path d="M193.23,246.22a94.67,94.67,0,0,1,2.07,27.88c-.45,5.92-20.45,169.81-20.45,169.81h-27l7.59-154-2.21.47s-14.73,65.7-15.94,76.34c-1.08,9.56-13.5,79-13.5,79L99.12,446,107,354.12,116.17,266l3.45-25.66Z" style="fill:#263238"></path><path d="M154.47,279.42s.05.08.17.19a1.84,1.84,0,0,0,.66.31,3.11,3.11,0,0,0,2.56-.61,5.07,5.07,0,0,0,1.75-3.48c.19-1.47.22-3.05.33-4.72.18-3.33.32-6.35.39-8.54a22,22,0,0,0,0-3.54,23.55,23.55,0,0,0-.37,3.52c-.17,2.18-.36,5.2-.54,8.53-.11,1.66-.13,3.27-.29,4.68a4.84,4.84,0,0,1-1.5,3.26,3,3,0,0,1-2.29.7A4,4,0,0,1,154.47,279.42Z" style="fill:#455a64"></path><path d="M114.76,263.58a2.21,2.21,0,0,0,.76.27,12.92,12.92,0,0,0,2.15.36,15.49,15.49,0,0,0,13-5.22,12.79,12.79,0,0,0,1.31-1.75,2.37,2.37,0,0,0,.36-.72c-.08,0-.68.92-1.94,2.22a17.08,17.08,0,0,1-5.8,3.92,16.88,16.88,0,0,1-6.89,1.18C115.88,263.77,114.78,263.49,114.76,263.58Z" style="fill:#455a64"></path><path d="M182.48,256.72a8.64,8.64,0,0,0,.41,2.71,20,20,0,0,0,2.71,6,20.25,20.25,0,0,0,4.52,4.84,9.1,9.1,0,0,0,2.33,1.43c.13-.14-3.6-2.27-6.41-6.56A28.92,28.92,0,0,1,182.48,256.72Z" style="fill:#455a64"></path><path d="M179.89,82.08a5,5,0,0,0,1.62-9.8,5.18,5.18,0,0,0-5-8.5,6.21,6.21,0,0,0-9.61-4.61,7,7,0,0,0-8.59.26,5,5,0,0,0-3.95,8.64" style="fill:#263238"></path><path d="M157.52,64.4l1.1-.05a21.15,21.15,0,0,1,22,18.39c1.33,10.17,2.67,21.42,2.88,26.9.42,11.35-10.84,13.68-10.84,13.68l1.64,13.58-27.57.51-4.89-49.3C140.27,76.39,145.76,65.68,157.52,64.4Z" style="fill:#ae7461"></path><path d="M172.79,123.3a27.61,27.61,0,0,1-15.08-3.61s3.9,8,15.17,6.4Z" style="fill:#6f4439"></path><path d="M177.9,93.2a1.61,1.61,0,0,1-1.48,1.71,1.54,1.54,0,0,1-1.74-1.37,1.63,1.63,0,0,1,1.48-1.72A1.55,1.55,0,0,1,177.9,93.2Z" style="fill:#263238"></path><path d="M178.49,88.41c-.19.22-1.46-.63-3.21-.54s-3,1-3.17.83.09-.49.62-.92a4.48,4.48,0,0,1,2.53-.92,4.3,4.3,0,0,1,2.57.69C178.38,87.94,178.58,88.31,178.49,88.41Z" style="fill:#263238"></path><path d="M161.77,93.64a1.62,1.62,0,0,1-1.48,1.71A1.56,1.56,0,0,1,158.54,94,1.63,1.63,0,0,1,160,92.26,1.56,1.56,0,0,1,161.77,93.64Z" style="fill:#263238"></path><path d="M161.37,89.58c-.19.23-1.46-.62-3.2-.53s-3,1-3.18.82.09-.48.63-.91a4.42,4.42,0,0,1,2.52-.92,4.23,4.23,0,0,1,2.57.69C161.26,89.11,161.47,89.49,161.37,89.58Z" style="fill:#263238"></path><path d="M168.34,102.2a11.46,11.46,0,0,1,2.81-.65c.44-.07.86-.18.92-.49a2.34,2.34,0,0,0-.37-1.3c-.47-1.06-1-2.17-1.48-3.33-2.07-4.73-3.59-8.63-3.4-8.72s2,3.69,4.09,8.43l1.43,3.34a2.58,2.58,0,0,1,.32,1.74,1.11,1.11,0,0,1-.7.69,2.87,2.87,0,0,1-.75.14A11.58,11.58,0,0,1,168.34,102.2Z" style="fill:#263238"></path><path d="M162.55,82.8c-.21.46-1.72,0-3.57.08s-3.37.42-3.56,0c-.09-.22.22-.63.87-1a5.6,5.6,0,0,1,2.73-.72,5.36,5.36,0,0,1,2.7.69C162.35,82.18,162.64,82.59,162.55,82.8Z" style="fill:#263238"></path><path d="M178.22,81.22c-.35.41-1.81.07-3.54.14s-3.18.42-3.54,0c-.16-.2.05-.61.67-1a6,6,0,0,1,5.71-.14C178.15,80.62,178.37,81,178.22,81.22Z" style="fill:#263238"></path><path d="M179.3,77.59s-3.34-7-6.85-8.44c-4.25-1.8-5.8,2.84-9.81,1.93s-8.06-2.64-11.95.62c-4.25,3.56-2.06,5.8-2.09,10.85-.09,20.46-3.53,26.41-5.07,16.86-.17-1-3.13-1.74-3.78-6.17-.85-5.74-1.42-12.73-.34-16.89.92-3.51,2.76-6,6.16-8.79,5.36-4.43,13-4.9,18.23-4.63S179.33,68.67,179.3,77.59Z" style="fill:#263238"></path><path d="M144.24,99.06a3.08,3.08,0,0,0-3.47-2.8c-2.11.31-4.4,1.62-4,6,.63,7.74,8.27,5.51,8.27,5.28S144.53,102.3,144.24,99.06Z" style="fill:#ae7461"></path><path d="M143.07,104.76s-.12.1-.34.23a1.36,1.36,0,0,1-1,.1c-.84-.23-1.64-1.47-1.79-2.87a4.5,4.5,0,0,1,.22-2,1.58,1.58,0,0,1,.93-1.12.7.7,0,0,1,.83.31c.12.21.08.36.12.37s.16-.14.07-.45a.84.84,0,0,0-.34-.46,1,1,0,0,0-.77-.14,1.91,1.91,0,0,0-1.31,1.32,4.73,4.73,0,0,0-.29,2.19c.18,1.56,1.1,3,2.24,3.18a1.45,1.45,0,0,0,1.22-.3C143.07,105,143.1,104.77,143.07,104.76Z" style="fill:#6f4439"></path><path d="M143.64,84A7.42,7.42,0,0,0,147,85.38a2.53,2.53,0,0,0,2.72-1.92c.07-.54-.1-1.16.24-1.59s1.19-.41,1.84-.37c2.27.13,4.78-2.49,5.24-4.71a2,2,0,0,0,2.73.42,7.09,7.09,0,0,0,1.79-1.75,3.19,3.19,0,0,1,2.6-1.47,7.21,7.21,0,0,0,1.7.29c1-.14,1.45-1.36,1.56-2.38s.16-2.2,1-2.79,1.82-.31,2.76-.22,2.15-.18,2.34-1.11a1.87,1.87,0,0,0-.41-1.39,5,5,0,0,0-6-1.61,6.81,6.81,0,0,0-12.57-.7,6.92,6.92,0,0,0-10.92,3.07,5,5,0,0,0-5.28,7.56,4.78,4.78,0,0,0-2.43,3.92c.05,1.61,1.7,3.13,3.22,2.63A2.78,2.78,0,0,0,144,83.79" style="fill:#263238"></path><path d="M167.77,67s0,0,0,.15,0,.23,0,.41a4.83,4.83,0,0,1-.49,1.53A5.5,5.5,0,0,1,165.63,71a5.16,5.16,0,0,1-3.13,1.07l.12-.18a2.77,2.77,0,0,1-.05,2.15,7.72,7.72,0,0,1-1.23,2,5.82,5.82,0,0,1-.82.93,2.68,2.68,0,0,1-1.21.52,2.83,2.83,0,0,1-2.54-.77l.29-.1a5.82,5.82,0,0,1-2.27,4.15,4.24,4.24,0,0,1-2.5,1,7.57,7.57,0,0,1-2.54-.43l.2-.1a6.21,6.21,0,0,1-1.71,2.49,3.29,3.29,0,0,1-2.67.87,4.27,4.27,0,0,1-3.45-3.18l.18.07a4,4,0,0,1-2.65.53,4.37,4.37,0,0,1-1.9-.74,3.84,3.84,0,0,1-.91-.91,1.49,1.49,0,0,1-.22-.39,4.71,4.71,0,0,0,1.2,1.19,4.29,4.29,0,0,0,1.85.66,3.84,3.84,0,0,0,2.5-.54l.14-.09,0,.16a4,4,0,0,0,3.26,3,3,3,0,0,0,2.42-.82,5.78,5.78,0,0,0,1.61-2.36l.06-.14.15,0a7.59,7.59,0,0,0,2.42.41,3.94,3.94,0,0,0,2.31-.9,5.47,5.47,0,0,0,2.15-3.91l0-.36.25.27a2.57,2.57,0,0,0,2.25.68,2.5,2.5,0,0,0,1.07-.45,5.52,5.52,0,0,0,.77-.88A7.36,7.36,0,0,0,162.31,74a2.52,2.52,0,0,0,.07-1.94l-.07-.18h.2a5,5,0,0,0,3-1,5.58,5.58,0,0,0,1.62-1.82A5.75,5.75,0,0,0,167.77,67Z" style="fill:#455a64"></path><path d="M168.26,108.18c-.06-.29-1.95.21-3.71-1.06s-2.09-3.32-2.36-3.27c-.12,0-.25.55-.05,1.4A4.85,4.85,0,0,0,164,108a4.23,4.23,0,0,0,3.08.77C167.89,108.64,168.3,108.31,168.26,108.18Z" style="fill:#263238"></path><path d="M249.14,175.36,220.06,198s-3.86-17-14.15-42.33a52.7,52.7,0,0,0-4.77-9.21c-.12-.25-.24-.49-.35-.69-3.85-7.2-11.95-10.38-17-10.69-.76-.05-2.66,0-5.32.15l-1.88-.61-2.15-6.4-5.14,5.67-24.53-11.6-2.36,9.07L125,139.06h0s-16.07,3.6-18.12,17.43c-2.36,15.91-4.42,52.34-4.42,52.34l19.91-10.2-4.8,36.42,1.17,13.42,45.7,7.47a25.35,25.35,0,0,0,7.43,0l22.51-3.32,2.72-6.41-2.54-40.63v-2.63c2.79,7.19,9.28,22.09,15.89,24.57C216.83,229.92,251,198,251,198Z" style="fill:#e0e0e0"></path><path d="M144.79,122.29s2.74.8,9.79,4.56c6.9,3.68,14.74,7,14.74,7L168.73,145l-26.12-13.11" style="fill:#e0e0e0"></path><polyline points="174.46 128.22 169.32 133.89 172.07 145.77 176.65 135.04" style="fill:#e0e0e0"></polyline><g style="opacity:0.30000000000000004"><path d="M169.42,135.12c.23.17,1.65,13.71,1.65,13.71L144.9,133l23.83,12Z"></path></g><path d="M169.24,185.64c-.39-10.35,1.24-36.77,1.24-36.77l3.41-.55a385.07,385.07,0,0,1,8.76,57.14c1,12.74,1,27.49,1,27.49l-6.86,14.71L169.18,233S169.72,198.22,169.24,185.64Z" style="fill:#455a64"></path><path d="M119.84,142.23c0,.05.71.63,1.77,1.73a21.26,21.26,0,0,1,5.55,10.32c.33,1.48.4,2.43.46,2.42a2.06,2.06,0,0,0,0-.67,12.19,12.19,0,0,0-.22-1.81,19.43,19.43,0,0,0-2-5.66,19.22,19.22,0,0,0-3.64-4.79,13,13,0,0,0-1.38-1.18A2.28,2.28,0,0,0,119.84,142.23Z" style="fill:#263238"></path><polygon points="169.24 139.19 171.58 138.28 173.79 142.08 174.19 148.32 171.07 148.83 168.73 144.97 169.24 139.19" style="fill:#455a64"></polygon><path d="M194.52,157.76c-.1,0-.18,13.52-.18,30.18s.08,30.19.18,30.19.18-13.51.18-30.19S194.62,157.76,194.52,157.76Z" style="fill:#263238"></path><path d="M169.08,133.8c-.05,0,.5.87,1.33,2.26s1.92,3.33,3,5.56c.09.18.17.37.25.54l.16.35.17-.35a44.46,44.46,0,0,0,2.18-5.53c.23-.72.39-1.31.49-1.72a2.48,2.48,0,0,0,.12-.64c-.05,0-.33.86-.84,2.28a59,59,0,0,1-2.28,5.45H174l-.25-.54a45.58,45.58,0,0,0-3.08-5.55c-.45-.68-.83-1.22-1.1-1.58S169.1,133.78,169.08,133.8Z" style="fill:#263238"></path><path d="M142.43,131.36a1.62,1.62,0,0,0,.36.22l1.06.55,3.9,2c3.29,1.71,7.8,4.15,12.79,6.82,3,1.62,5.92,3.12,8.43,4.37l.23.12v-.26c0-3.25.06-6,.08-8V135a4.56,4.56,0,0,0,0-.8,4.23,4.23,0,0,0-.06.8c0,.56-.05,1.31-.09,2.24-.05,2-.12,4.72-.21,8l.24-.14c-2.5-1.28-5.37-2.79-8.41-4.41-5-2.67-9.52-5.07-12.84-6.73-1.66-.83-3-1.48-4-1.92l-1.09-.49A1.74,1.74,0,0,0,142.43,131.36Z" style="fill:#263238"></path><path d="M191.36,139.9c-.05,0,.36.73.89,1.91a21.05,21.05,0,0,1,1.81,9.85c-.07,1.3-.21,2.09-.15,2.1s.08-.19.16-.54a12,12,0,0,0,.25-1.54,18.44,18.44,0,0,0-1.84-10,12.05,12.05,0,0,0-.77-1.35C191.51,140.05,191.38,139.88,191.36,139.9Z" style="fill:#263238"></path><path d="M171.64,149.23c.06.09.65-.19,1.33-.62s1.18-.85,1.13-.93-.65.19-1.33.62S171.59,149.15,171.64,149.23Z" style="fill:#263238"></path><path d="M170.52,147.71a17.92,17.92,0,0,0,1.59-3.17,17.54,17.54,0,0,0,1.25-3.3,17.59,17.59,0,0,0-1.59,3.16A17.21,17.21,0,0,0,170.52,147.71Z" style="fill:#263238"></path><path d="M117.1,143S109,148.78,108,152s-5.31,55.56-6.07,61.79-1.52,17.87,3.29,21.66,15.18,6.65,15.18,6.65L130,222.29l-5.08-10.63L130,171.91Z" style="fill:#e0e0e0"></path><path d="M118.08,241.4a1.93,1.93,0,0,1,.52,0,12.17,12.17,0,0,0,1.49-.1,11,11,0,0,0,5.18-1.87,14.17,14.17,0,0,0,5-6.76A31,31,0,0,0,132.09,222l0,.14-7.44-10.3-.06-.08v-.1c0-.26.07-.55.11-.84,1.43-11.14,2.72-21.23,3.67-28.59l1.12-8.67c.13-1,.24-1.77.31-2.35a6.07,6.07,0,0,1,.12-.82.67.67,0,0,1,0,.21c0,.14,0,.34,0,.62-.05.58-.12,1.37-.21,2.36-.2,2.06-.54,5-1,8.69-.86,7.33-2.1,17.45-3.53,28.62,0,.28-.07.57-.1.83l0-.18c2.61,3.64,5.12,7.12,7.41,10.32l0,.06V222a30.76,30.76,0,0,1-2,10.81,14.35,14.35,0,0,1-5.15,6.87,10.12,10.12,0,0,1-3,1.36l-.67.19-.62.1a6.55,6.55,0,0,1-1.09.13,8.66,8.66,0,0,1-1.51,0A2.66,2.66,0,0,1,118.08,241.4Z" style="fill:#263238"></path><path d="M108.3,215.33a8.24,8.24,0,0,1,2.12-1.51,19.87,19.87,0,0,1,5.92-2.17,19.6,19.6,0,0,1,6.3-.2,8.67,8.67,0,0,1,2.54.6,29.38,29.38,0,0,0-8.74.1A29,29,0,0,0,108.3,215.33Z" style="fill:#263238"></path><path d="M155.37,187.71a6.26,6.26,0,0,1-6.78,5.69,6.17,6.17,0,0,1-4.36-2.35c-1.67-2.17-4.71-5.28-8.57-5.61-6-.52-10.58,3.9-11.18,10.68s3.18,11.94,9.16,12.46c3.87.34,7.39-2.2,9.41-4a6.15,6.15,0,0,1,4.71-1.56,6.25,6.25,0,0,1,5.69,6.77l-3.72,42.32L244,258.42l3.14-44.5a6.26,6.26,0,0,1,6.78-5.7,6.17,6.17,0,0,1,4.37,2.36c1.67,2.16,4.7,5.27,8.56,5.61,6,.52,10.59-3.91,11.18-10.69s-3.17-11.93-9.16-12.46c-3.86-.33-7.39,2.2-9.41,4.05a6.16,6.16,0,0,1-4.7,1.56c-3.45-.3-6.6-3-6.3-6.44L251,154.42l-93.3-6.3Z" style="fill:#1890FF"></path><g style="opacity:0.4"><path d="M155.37,187.71a6.26,6.26,0,0,1-6.78,5.69,6.17,6.17,0,0,1-4.36-2.35c-1.67-2.17-4.71-5.28-8.57-5.61-6-.52-10.58,3.9-11.18,10.68s3.18,11.94,9.16,12.46c3.87.34,7.39-2.2,9.41-4a6.15,6.15,0,0,1,4.71-1.56,6.25,6.25,0,0,1,5.69,6.77l-3.72,42.32L244,258.42l3.14-44.5a6.26,6.26,0,0,1,6.78-5.7,6.17,6.17,0,0,1,4.37,2.36c1.67,2.16,4.7,5.27,8.56,5.61,6,.52,10.59-3.91,11.18-10.69s-3.17-11.93-9.16-12.46c-3.86-.33-7.39,2.2-9.41,4.05a6.16,6.16,0,0,1-4.7,1.56c-3.45-.3-6.6-3-6.3-6.44L251,154.42l-93.3-6.3Z"></path></g><path d="M149,187.25a6.26,6.26,0,0,1-6.78,5.69,6.14,6.14,0,0,1-4.36-2.35c-1.67-2.16-4.71-5.27-8.57-5.61-6-.52-10.58,3.9-11.18,10.69s3.18,11.93,9.16,12.45c3.87.34,7.39-2.2,9.41-4a6.18,6.18,0,0,1,4.71-1.56,6.26,6.26,0,0,1,5.69,6.78l-3.72,42.31L237.61,258l3.15-44.51a6.25,6.25,0,0,1,6.77-5.69,6.16,6.16,0,0,1,4.37,2.35c1.67,2.16,4.7,5.27,8.56,5.61,6,.52,10.59-3.9,11.18-10.69s-3.17-11.93-9.16-12.45c-3.86-.34-7.39,2.2-9.41,4a6.16,6.16,0,0,1-4.7,1.56c-3.45-.3-6.6-3-6.3-6.43l2.55-37.8-93.3-6.3Z" style="fill:#1890FF"></path><path d="M149,187.25s0-.23,0-.67,0-1.11.1-2c.09-1.75.23-4.34.41-7.7.37-6.76.92-16.65,1.62-29.25v-.14h.14l93.31,6.2.23,0,0,.22q-.94,14.06-2,29.27c-.17,2.54-.34,5.09-.51,7.67a9.25,9.25,0,0,0,0,1.89,4.92,4.92,0,0,0,.56,1.75,6.41,6.41,0,0,0,2.69,2.57,7.35,7.35,0,0,0,3.68.84,5.91,5.91,0,0,0,3.49-1.39,16.12,16.12,0,0,1,7-4,9.52,9.52,0,0,1,2.07-.23,10.28,10.28,0,0,1,2.07.25,9.82,9.82,0,0,1,3.8,1.71,10.94,10.94,0,0,1,4.09,7.16,15.6,15.6,0,0,1-1.08,8.34,10.33,10.33,0,0,1-6.14,5.76,10.53,10.53,0,0,1-4.32.43,9.68,9.68,0,0,1-4.1-1.5,16.05,16.05,0,0,1-3.32-2.83c-.49-.52-1-1.13-1.39-1.66a5.92,5.92,0,0,0-1.63-1.27,6,6,0,0,0-7.53,1.59,6.45,6.45,0,0,0-1.32,3.94c-.1,1.46-.21,2.92-.31,4.39-1,13.39-1.88,26.55-2.79,39.37l0,.25-.25,0-94.21-6.39h-.23l0-.23q1.28-14.37,2.43-27.48.59-6.54,1.13-12.74a26.7,26.7,0,0,0,.19-3.05,5.86,5.86,0,0,0-.9-2.77,6.07,6.07,0,0,0-4.76-2.86,6.16,6.16,0,0,0-2.76.46,6,6,0,0,0-1.21.68c-.36.27-.7.61-1.07.92a16.62,16.62,0,0,1-4.78,2.91,9.76,9.76,0,0,1-10-1.88,10.68,10.68,0,0,1-2.74-4.17,13.51,13.51,0,0,1-.76-4.71,13.79,13.79,0,0,1,2.72-8.34,9.74,9.74,0,0,1,13.52-1.76,22,22,0,0,1,4.25,4.28,6.18,6.18,0,0,0,8.11.57,6,6,0,0,0,1.82-2.17,6.65,6.65,0,0,0,.67-2.23l-.06.59a6.33,6.33,0,0,1-.54,1.67,6.17,6.17,0,0,1-1.83,2.22,6.26,6.26,0,0,1-3.71,1.3,6.35,6.35,0,0,1-4.58-1.83,21.77,21.77,0,0,0-4.24-4.23,9.51,9.51,0,0,0-13.2,1.75,13.52,13.52,0,0,0-2.64,8.18,12.93,12.93,0,0,0,.76,4.61,10.36,10.36,0,0,0,2.66,4,9.41,9.41,0,0,0,9.67,1.79,16.19,16.19,0,0,0,4.67-2.86c.36-.3.69-.64,1.09-.93a5.8,5.8,0,0,1,1.28-.73,6.32,6.32,0,0,1,2.92-.49,6.43,6.43,0,0,1,5.06,3,6.21,6.21,0,0,1,1,3,24.46,24.46,0,0,1-.18,3.1L146,224.15q-1.14,13.1-2.4,27.48l-.2-.24,94.21,6.32-.27.24c.9-12.81,1.83-26,2.78-39.37l.31-4.39a6.91,6.91,0,0,1,1.43-4.22,6.54,6.54,0,0,1,8.19-1.73,6.45,6.45,0,0,1,1.77,1.39c.48.58.89,1.12,1.38,1.65a15.49,15.49,0,0,0,3.21,2.74,9.23,9.23,0,0,0,3.88,1.43,10,10,0,0,0,4.11-.41,9.79,9.79,0,0,0,5.83-5.48,15,15,0,0,0,1-8.05,10.38,10.38,0,0,0-3.89-6.83,9.2,9.2,0,0,0-3.6-1.63,10.1,10.1,0,0,0-2-.24,9.18,9.18,0,0,0-1.95.22,15.72,15.72,0,0,0-6.79,3.92,6.3,6.3,0,0,1-3.78,1.5,7.76,7.76,0,0,1-3.94-.89,7,7,0,0,1-2.89-2.77,5.31,5.31,0,0,1-.61-1.93,10.11,10.11,0,0,1,0-2c.17-2.57.35-5.13.52-7.66q1-15.19,2-29.27l.21.24-93.3-6.38.15-.13c-.76,12.6-1.35,22.49-1.76,29.25-.21,3.36-.37,5.94-.48,7.69-.06.87-.1,1.52-.13,2S149,187.25,149,187.25Z" style="fill:#263238"></path><path d="M138,230.57s3.25-2.51,5.66-2.61,5.55.83,6.17.52,2.1-1.69,3-.53,2.09,5.35-2.93,6.5h-3.46s.42,3.45,1.26,4.81,12.56,16.13,12.56,16.13,1.47,1.46.74,2.93-3.88.63-3.88.63-2.2,2-4.71,1a17.82,17.82,0,0,1-3.56-1.67,4.65,4.65,0,0,1-5.65,0c-2.93-2.2-12.71-14.45-12.71-14.45l3.49-13.71Z" style="fill:#ae7461"></path><path d="M127.87,222.47l10.17,8.1-7.47,13.3-14.9-5.41S116.1,222.76,127.87,222.47Z" style="fill:#ae7461"></path><path d="M242.73,167.9s.52-3.55,8-2.34c4.69.75,2.24,3.79,2.24,3.79a2.86,2.86,0,0,1-.51,4.68l.49.36s3.73,1.87.51,5.19a3.28,3.28,0,0,1-.43,3.76c-1.61,1.6-5.63-.54-5.63-.54s-5.68-.09-6-1.59a2.06,2.06,0,0,1,1.13-2.32,29.39,29.39,0,0,1,4-.48s-5-.06-5.42-1c-.8-1.74-.59-3.51,5.42-3.29h0s-4.47-.09-5-1,.12-2.38,1.72-3.13a6.65,6.65,0,0,1,3.05-.63S242.09,170.15,242.73,167.9Z" style="fill:#ae7461"></path></g></svg>
