<svg width="64" height="64" xmlns="http://www.w3.org/2000/svg" xmlns:xlink="http://www.w3.org/1999/xlink"><defs><linearGradient x1="1.061%" y1="50.016%" x2="99.018%" y2="50.016%" id="b"><stop stop-color="#00A4FF" offset="0%"/><stop stop-color="#006EFF" offset="100%"/></linearGradient><circle id="a" cx="32" cy="32" r="32"/><path d="M55 57c-.619-3.217-1.687-7.845-2.756-9.594-1.687-2.822-5.623-4.515-8.998-6.772-3.374-2.258-8.998-5.08-8.998-8.466 0-2.821 2.812-3.95 4.5-7.9 1.574-3.725 1.687-7.337 1.687-12.98C40.435 5.078 34.81 0 27.5 0c-7.31 0-12.935 5.08-12.935 11.287 0 5.644.113 9.256 1.688 12.98 1.687 3.95 4.499 5.08 4.499 7.901 0 3.386-5.624 6.208-8.998 8.466-3.375 2.257-7.311 3.95-8.998 6.772C1.687 49.156.675 53.783 0 57h55z" id="d"/></defs><g fill="none" fill-rule="evenodd"><mask id="c" fill="#fff"><use xlink:href="#a"/></mask><use fill="#E6F2FF" fill-rule="nonzero" xlink:href="#a"/><path d="M50.051 64c-.44-3.641-8.835-6.564-19.282-6.564-10.446 0-18.842 2.923-19.282 6.564h38.564z" fill="url(#b)" fill-rule="nonzero" mask="url(#c)"/><path fill="#222" fill-rule="nonzero" mask="url(#c)" d="M12.308 23.5l2.871 14.244h2.872v-14.77h-5.743zm33.641.295v14.77h2.872l2.871-14.292v-.478z"/><path d="M38.564 64c-.767-4.565-1.007-7.557-.671-8.973.48-2.152-13.57-2.362-13.427 0 .096 1.574-.144 4.565-.671 8.973h14.77zM17.34 33.4c-1.19-.682-5.853-1.73-5.853 3.352 0 5.03 2.515 6.234 3.43 7.282.868.995 3.611 1.572 3.885.576.275-.995-.274-10.53-1.463-11.21zm26.878.004c-1.203.683-1.759 10.193-1.481 11.191.278.999 3.009.473 3.888-.578.88-.998 3.426-2.259 3.426-7.303.046-5.044-4.675-3.993-5.833-3.31z" fill="#FFDFDD" fill-rule="nonzero" mask="url(#c)"/><path d="M30.895 58.256h-1.072c-9.354 0-15.054-10.3-15.054-28.447V18.872h31.18V29.76c0 18.148-5.7 28.496-15.054 28.496z" fill="#FFF2F1" fill-rule="nonzero" mask="url(#c)"/><path d="M47.397 24.133v4.585c-.982 0-2.015-.241-2.408-.82-.54-.821-1.72-2.703-2.31-4.296-.638-1.641-.442-3.09-3.145-3.09H22.776c-2.212 0-2.507 1.449-3.146 3.09-.59 1.593-1.769 3.475-2.31 4.295-.393.58-2.245.82-3.228.82V23.65h-1.784v-.53c0-3.428 1.572-6.517 4.03-8.592-1.229-1.786-1.917-4.006-1.917-6.323h19.904c8.699 0 15.726 6.902 15.726 15.445v.531h-2.654v-.048z" fill="#222" fill-rule="nonzero" mask="url(#c)"/><path d="M30.77 53.333c-3.385 0-6.155-2.584-6.155-5.743h12.308c0 3.159-2.77 5.743-6.154 5.743z" fill="#FFC6C1" fill-rule="nonzero" mask="url(#c)"/><path fill="#006EFF" mask="url(#c)" d="M-3 0h70v61H-3z"/><g mask="url(#c)"><g transform="translate(5 11)"><mask id="e" fill="#fff"><use xlink:href="#d"/></mask><use fill="#F1F7FF" fill-rule="nonzero" xlink:href="#d"/><path d="M18.795 28.5c3.803 3.1 6.705 4.649 8.705 4.649s5.389-1.862 10.167-5.585V32c0 3.06 2.461 5.547 7.384 7.462-8.7.41-14.718-.547-18.051-2.872-3.333-2.325-6.068-5.022-8.205-8.09z" fill="#A7C6EF" opacity=".304" mask="url(#e)"/></g></g></g></svg>